<?xml version="1.0" encoding="UTF-8"?>
<!-- Generator: visioncortex VTracer 0.6.12 -->
<svg viewBox="0 0 641 575" version="1.1" xmlns="http://www.w3.org/2000/svg" width="641" height="575">
<path d="M0 0 C211.53 0 423.06 0 641 0 C641 189.75 641 379.5 641 575 C429.47 575 217.94 575 0 575 C0 385.25 0 195.5 0 0 Z " fill="#02713C" transform="translate(0,0)"/>
<path d="M0 0 C0 76.56 0 153.12 0 232 C-10.130416 230.649278 -20.054166 229.135692 -30.0625 227.1875 C-41.867645 224.923719 -53.690658 222.840609 -65.553467 220.897461 C-75.896805 219.198522 -86.218173 217.390056 -96.537537 215.552399 C-107.018835 213.686531 -117.507868 211.884522 -128.020996 210.204834 C-128.921567 210.058606 -129.822139 209.912378 -130.75 209.761719 C-131.139297 209.699642 -131.139297 209.699642 -133.109375 209.385498 C-135 209 -135 209 -137 208 C-137 146.95 -137 85.9 -137 23 C-122.48 20.36 -107.96 17.72 -93 15 C-87.72 14.01 -82.44 13.02 -77 12 C-69.960937 10.992188 -69.960937 10.992188 -66.510742 10.518555 C-60.854691 9.683127 -55.249151 8.596254 -49.6362 7.512512 C-38.92165 5.448064 -28.19518 3.452671 -17.4375 1.625 C-16.476021 1.457583 -15.514541 1.290166 -14.523926 1.117676 C-13.627866 0.967983 -12.731807 0.818291 -11.808594 0.664062 C-11.043455 0.534673 -10.278315 0.405283 -9.48999 0.271973 C-6.344072 -0.071645 -3.164629 0 0 0 Z " fill="#FDFEFE" transform="translate(191,172)"/>
<path d="M0 0 C11.013533 -0.067749 22.026928 -0.122801 33.040623 -0.155437 C38.154602 -0.171099 43.268431 -0.192349 48.382324 -0.226318 C53.316571 -0.25889 58.250674 -0.276848 63.18502 -0.284632 C65.068512 -0.290179 66.951996 -0.301012 68.835426 -0.31719 C71.471513 -0.338935 74.107002 -0.341968 76.743164 -0.340576 C77.13338 -0.345969 77.13338 -0.345969 79.108109 -0.37326 C82.095021 -0.356169 84.498449 -0.248084 87.200421 1.088405 C89.875085 3.929555 89.500573 6.091057 89.501205 9.946289 C89.503973 10.301781 89.503973 10.301781 89.517976 12.100788 C89.531618 14.48942 89.516596 16.877013 89.501709 19.265625 C89.505491 20.975468 89.51099 22.685309 89.518082 24.395142 C89.53207 29.043907 89.520843 33.692304 89.50437 38.341049 C89.490545 43.200351 89.496977 48.059631 89.500504 52.918945 C89.503208 61.080139 89.489713 69.241185 89.466553 77.402344 C89.439942 86.844903 89.438195 96.287217 89.449941 105.729801 C89.460711 114.804071 89.454538 123.878252 89.440386 132.952515 C89.434619 136.818503 89.434714 140.684426 89.439451 144.550415 C89.444215 149.100952 89.434144 153.65122 89.412497 158.201706 C89.40692 159.874274 89.406471 161.546867 89.411449 163.219437 C89.417382 165.49783 89.404938 167.775393 89.38768 170.053711 C89.38525 171.330185 89.38282 172.606659 89.380317 173.921814 C89 177 89 177 87.704746 178.911595 C84.677082 180.844624 81.151402 180.387312 77.673096 180.340576 C76.824097 180.341014 75.975098 180.341452 75.100372 180.341904 C72.291942 180.339812 69.484107 180.316465 66.675781 180.292969 C64.729511 180.287374 62.783236 180.283103 60.83696 180.280106 C55.712558 180.268647 50.588412 180.239171 45.464111 180.205994 C40.235875 180.175314 35.007597 180.161605 29.779297 180.146484 C19.519401 180.114303 9.259762 180.061526 -1 180 C-1 172.74 -1 165.48 -1 158 C7.25 158 15.5 158 24 158 C24 151.07 24 144.14 24 137 C16.08 137 8.16 137 0 137 C0 134.36 0 131.72 0 129 C7.59 129 15.18 129 23 129 C23 122.4 23 115.8 23 109 C15.41 109 7.82 109 0 109 C0 106.03 0 103.06 0 100 C7.59 100 15.18 100 23 100 C23 93.4 23 86.8 23 80 C15.08 80 7.16 80 -1 80 C-1 77.03 -1 74.06 -1 71 C6.92 71 14.84 71 23 71 C23 64.4 23 57.8 23 51 C15.41 51 7.82 51 0 51 C0 48.03 0 45.06 0 42 C7.59 42 15.18 42 23 42 C23 35.07 23 28.14 23 21 C15.41 21 7.82 21 0 21 C0 14.07 0 7.14 0 0 Z " fill="#F9FCFA" transform="translate(196,195)"/>
<path d="M0 0 C0.98291 0.003223 1.96582 0.006445 2.978516 0.009766 C3.490596 0.013955 3.490596 0.013955 6.082031 0.035156 C6.599912 0.037412 6.599912 0.037412 9.220703 0.048828 C11.778704 0.060616 14.336589 0.077071 16.894531 0.097656 C17.554531 2.407656 18.214531 4.717656 18.894531 7.097656 C20.874531 6.767656 22.854531 6.437656 24.894531 6.097656 C24.894531 7.087656 24.894531 8.077656 24.894531 9.097656 C25.554531 9.097656 26.214531 9.097656 26.894531 9.097656 C26.894531 7.777656 26.894531 6.457656 26.894531 5.097656 C27.925781 5.180156 28.957031 5.262656 30.019531 5.347656 C34.539174 5.056066 36.301659 3.732429 39.894531 1.097656 C46.419121 -1.086541 54.384635 -0.863076 60.769531 1.597656 C65.541578 4.044195 68.195549 7.556099 70.894531 12.097656 C71.513281 13.128906 72.132031 14.160156 72.769531 15.222656 C73.894531 19.097656 73.894531 19.097656 73.894531 33.097656 C60.364531 33.097656 46.834531 33.097656 32.894531 33.097656 C37.431605 47.843147 37.431605 47.843147 42.894531 51.097656 C50.262997 53.553812 56.745393 52.215913 63.667969 49.070312 C65.894531 48.097656 65.894531 48.097656 69.894531 47.097656 C69.894531 50.067656 69.894531 53.037656 69.894531 56.097656 C68.312535 56.746758 66.728874 57.391803 65.144531 58.035156 C64.262812 58.394805 63.381094 58.754453 62.472656 59.125 C55.40335 61.792057 46.588156 62.764075 39.375 60.203125 C37.528301 59.203859 35.709422 58.153593 33.894531 57.097656 C31.019531 56.972656 31.019531 56.972656 28.894531 57.097656 C28.234531 56.437656 27.574531 55.777656 26.894531 55.097656 C24.769531 55.472656 24.769531 55.472656 22.894531 56.097656 C22.729531 55.437656 22.729531 55.437656 21.894531 52.097656 C22.554531 52.097656 23.214531 52.097656 23.894531 52.097656 C23.894531 50.447656 23.894531 48.797656 23.894531 47.097656 C23.234531 47.097656 22.574531 47.097656 21.894531 47.097656 C21.564531 48.417656 21.234531 49.737656 20.894531 51.097656 C20.234531 51.097656 19.574531 51.097656 18.894531 51.097656 C18.894531 52.025781 18.894531 52.953906 18.894531 53.910156 C17.894531 57.097656 17.894531 57.097656 16.1875 58.128906 C14.103331 58.902253 12.046888 59.542596 9.894531 60.097656 C9.26418 60.279414 8.633828 60.461172 7.984375 60.648438 C0.040438 62.356013 -6.960383 61.545509 -13.988281 57.503906 C-20.644788 53.082611 -24.321114 46.684917 -26.730469 39.140625 C-28.54079 29.278148 -27.143373 19.224466 -21.542969 10.847656 C-16.252031 4.293807 -8.418457 -0.048662 0 0 Z " fill="#03713C" transform="translate(490.10546875,268.90234375)"/>
<path d="M0 0 C-2.11289 4.465649 -4.227122 8.930653 -6.34375 13.394531 C-8.139463 17.181695 -9.930386 20.97108 -11.71875 24.761719 C-12.604072 26.632857 -13.489486 28.503952 -14.375 30.375 C-14.791206 31.259539 -15.207412 32.144077 -15.63623 33.05542 C-17.242514 36.44352 -18.774369 39.660125 -20.851562 42.789062 C-22.356291 45.68592 -21.820924 46.885666 -21 50 C-20.38329 51.52821 -19.712332 53.035362 -18.996094 54.519531 C-18.588831 55.369587 -18.181567 56.219644 -17.761963 57.095459 C-17.543427 57.543771 -17.543427 57.543771 -16.4375 59.8125 C-15.990759 60.739417 -15.544019 61.666333 -15.08374 62.621338 C-10.594412 71.907373 -6.031954 81.162972 -1.277344 90.316406 C0 93 0 93 0 95 C-2.09479 95.034341 -4.190296 95.057128 -6.285156 95.027344 C-8.147349 95.008588 -10.010681 95.045378 -11.871094 95.128906 C-14.861131 95.124849 -17.149384 94.909447 -20 94 C-21.419678 92.146484 -21.419678 92.146484 -22.496094 89.71875 C-22.905532 88.815278 -23.314971 87.911807 -23.736816 86.980957 C-24.153667 85.997241 -24.570518 85.013525 -25 84 C-25.219382 83.493318 -25.219382 83.493318 -26.32959 80.929199 C-27.683725 77.754815 -29.003072 74.568064 -30.3125 71.375 C-30.766895 70.27543 -31.221289 69.175859 -31.689453 68.042969 C-32.796266 65.363318 -33.899711 62.682335 -35 60 C-35.302043 60.80373 -35.604087 61.607461 -35.915283 62.435547 C-39.673888 72.404352 -43.825666 82.199729 -48 92 C-50.041591 92.027262 -52.08329 92.046513 -54.125 92.0625 C-55.261953 92.074102 -56.398906 92.085703 -57.570312 92.097656 C-60.812916 92.005327 -63.819326 91.613899 -67 91 C-65.303349 86.428174 -63.085894 82.195819 -60.832031 77.882812 C-60.012694 76.290867 -59.194365 74.698403 -58.376953 73.105469 C-57.095375 70.61014 -55.808879 68.118102 -54.505127 65.634277 C-53.243005 63.225443 -52.004497 60.805658 -50.769531 58.382812 C-50.376916 57.647171 -49.984301 56.911529 -49.579788 56.153595 C-47.164409 51.349498 -46.534902 48.374176 -48 43 C-48.966982 40.365285 -50.105155 37.842935 -51.308594 35.308594 C-51.635376 34.600259 -51.962159 33.891924 -52.298843 33.162125 C-53.336488 30.916485 -54.386277 28.676811 -55.4375 26.4375 C-56.483027 24.193707 -57.52588 21.948725 -58.565445 19.702164 C-59.210387 18.310147 -59.859053 16.919848 -60.51207 15.531601 C-62.29329 11.706578 -63.655492 8.033524 -65 4 C-61.865 3.835 -61.865 3.835 -46 3 C-44.423439 6.731535 -42.853799 10.464958 -41.300293 14.206055 C-40.770578 15.476207 -40.2371 16.744796 -39.699707 18.011719 C-38.925186 19.83953 -38.165562 21.673631 -37.40625 23.507812 C-36.94541 24.607544 -36.48457 25.707275 -36.009766 26.840332 C-34.97218 30.087053 -34.803817 32.615842 -35 36 C-34.34 36 -33.68 36 -33 36 C-32.969063 35.535937 -32.969063 35.535937 -32.8125 33.1875 C-32.180994 28.749168 -30.319264 25.067978 -28.402344 21.050781 C-26.416933 16.731545 -24.774042 12.299794 -23.113281 7.847656 C-22.745898 6.90793 -22.378516 5.968203 -22 5 C-21.726719 4.23043 -21.453438 3.460859 -21.171875 2.667969 C-20 1 -20 1 -17.714844 0.390625 C-17.256582 0.367422 -17.256582 0.367422 -14.9375 0.25 C-14.488262 0.221641 -14.488262 0.221641 -12.214844 0.078125 C-8.142464 -0.020839 -4.073334 -0.020341 0 0 Z " fill="#05713D" transform="translate(153,240)"/>
<path d="M0 0 C13.86 0 27.72 0 42 0 C42 2.97 42 5.94 42 9 C31.44 9 20.88 9 10 9 C10 17.91 10 26.82 10 36 C19.57 36 29.14 36 39 36 C39 38.64 39 41.28 39 44 C29.43 44 19.86 44 10 44 C10 53.57 10 63.14 10 73 C21.22 73 32.44 73 44 73 C44 75.64 44 78.28 44 81 C44.66 81 45.32 81 46 81 C46 80.34 46 79.68 46 79 C47.159462 77.851254 48.322039 76.705513 49.498535 75.574219 C52.427289 72.503552 54.762302 68.971421 57.1875 65.5 C57.720527 64.753633 58.253555 64.007266 58.802734 63.238281 C59.315137 62.509961 59.827539 61.781641 60.355469 61.03125 C60.815906 60.377051 61.276343 59.722852 61.750732 59.048828 C63.211277 56.653501 64.318057 54.739108 65 52 C63.881836 49.308594 63.881836 49.308594 61.984375 46.4375 C61.310195 45.393359 60.636016 44.349219 59.941406 43.273438 C59.218242 42.193203 58.495078 41.112969 57.75 40 C56.345626 37.856346 54.944458 35.710588 53.546875 33.5625 C52.916201 32.615039 52.285527 31.667578 51.635742 30.691406 C50 28 50 28 48 23 C51.63 23 55.26 23 59 23 C59.531094 24.001602 60.062187 25.003203 60.609375 26.035156 C61.32286 27.377634 62.036405 28.720081 62.75 30.0625 C63.098047 30.719277 63.446094 31.376055 63.804688 32.052734 C65.566404 35.364109 67.364256 38.637593 69.265625 41.871094 C71 45 71 45 71 47 C71.66 47 72.32 47 73 47 C73.284319 46.270793 73.568638 45.541587 73.861572 44.790283 C76.929947 37.269705 80.605068 29.137323 86 23 C90.05341 21.412581 92.903162 21.644953 97 23 C95.420409 26.416161 93.424292 29.38345 91.269531 32.464844 C90.909561 32.988525 90.909561 32.988525 89.087891 35.638672 C87.949352 37.293945 86.806798 38.945603 85.650635 40.588623 C84.530712 42.18365 83.431072 43.792857 82.332031 45.402344 C81.669211 46.356169 81.006392 47.309995 80.323486 48.292725 C79 51 79 51 79.14624 53.620361 C79.983873 55.95505 80.880423 57.66711 82.328125 59.671875 C82.796296 60.33252 83.264468 60.993164 83.746826 61.673828 C83.99485 62.016396 83.99485 62.016396 85.25 63.75 C89.208538 69.345739 92.842233 74.902242 96 81 C92.158576 81.658455 88.820459 81.86341 85 81 C81.744362 77.985825 79.867126 74.39852 77.8125 70.5 C77.24209 69.498398 76.67168 68.496797 76.083984 67.464844 C74.684301 64.994814 73.326462 62.509884 72 60 C68.480384 64.16775 65.652974 68.611811 62.8125 73.25 C61.924337 74.693423 61.035073 76.136169 60.144531 77.578125 C59.756282 78.211377 59.368032 78.844629 58.968018 79.49707 C58 81 58 81 57 82 C45.493027 84.003841 33.350327 82.880003 21.75 82.5625 C14.5725 82.376875 7.395 82.19125 0 82 C0 54.94 0 27.88 0 0 Z " fill="#F8FEFB" transform="translate(363,247)"/>
<path d="M0 0 C3.558409 2.52054 5.762127 5.681464 7.96875 9.394531 C8.278125 9.910156 8.278125 9.910156 9.84375 12.519531 C10.96875 16.394531 10.96875 16.394531 10.96875 30.394531 C-2.56125 30.394531 -16.09125 30.394531 -30.03125 30.394531 C-25.494176 45.140022 -25.494176 45.140022 -20.03125 48.394531 C-12.662784 50.850687 -6.180388 49.512788 0.742188 46.367188 C2.96875 45.394531 2.96875 45.394531 6.96875 44.394531 C6.96875 47.364531 6.96875 50.334531 6.96875 53.394531 C5.386754 54.043633 3.803093 54.688678 2.21875 55.332031 C1.777891 55.511855 1.777891 55.511855 -0.453125 56.421875 C-8.038219 59.283524 -17.91282 60.264268 -25.46875 56.894531 C-32.185533 52.829869 -37.694969 45.796519 -39.582031 38.167969 C-41.315115 27.46806 -40.877495 17.141725 -34.417969 8.148438 C-25.647727 -2.449748 -12.923109 -6.625435 0 0 Z " fill="#F1FAF4" transform="translate(553.03125,271.60546875)"/>
<path d="M0 0 C13.86 0 27.72 0 42 0 C42 2.97 42 5.94 42 9 C31.44 9 20.88 9 10 9 C10 8.67 10 8.34 10 8 C20.23 8 30.46 8 41 8 C41 5.69 41 3.38 41 1 C27.8 1 14.6 1 1 1 C1 27.4 1 53.8 1 81 C14.86 81 28.72 81 43 81 C43 78.36 43 75.72 43 73 C43.33 73 43.66 73 44 73 C44 75.64 44 78.28 44 81 C44.66 81 45.32 81 46 81 C46 80.34 46 79.68 46 79 C47.159462 77.851254 48.322039 76.705513 49.498535 75.574219 C52.427289 72.503552 54.762302 68.971421 57.1875 65.5 C57.720527 64.753633 58.253555 64.007266 58.802734 63.238281 C59.315137 62.509961 59.827539 61.781641 60.355469 61.03125 C60.815906 60.377051 61.276343 59.722852 61.750732 59.048828 C63.211277 56.653501 64.318057 54.739108 65 52 C63.881836 49.308594 63.881836 49.308594 61.984375 46.4375 C61.310195 45.393359 60.636016 44.349219 59.941406 43.273438 C59.218242 42.193203 58.495078 41.112969 57.75 40 C56.345626 37.856346 54.944458 35.710588 53.546875 33.5625 C52.916201 32.615039 52.285527 31.667578 51.635742 30.691406 C50 28 50 28 48 23 C51.63 23 55.26 23 59 23 C59.531094 24.001602 60.062187 25.003203 60.609375 26.035156 C61.32286 27.377634 62.036405 28.720081 62.75 30.0625 C63.098047 30.719277 63.446094 31.376055 63.804688 32.052734 C65.566404 35.364109 67.364256 38.637593 69.265625 41.871094 C71 45 71 45 71 47 C71.66 47 72.32 47 73 47 C73.284319 46.270793 73.568638 45.541587 73.861572 44.790283 C76.929947 37.269705 80.605068 29.137323 86 23 C90.05341 21.412581 92.903162 21.644953 97 23 C95.420409 26.416161 93.424292 29.38345 91.269531 32.464844 C90.909561 32.988525 90.909561 32.988525 89.087891 35.638672 C87.949352 37.293945 86.806798 38.945603 85.650635 40.588623 C84.530712 42.18365 83.431072 43.792857 82.332031 45.402344 C81.669211 46.356169 81.006392 47.309995 80.323486 48.292725 C79 51 79 51 79.14624 53.620361 C79.983873 55.95505 80.880423 57.66711 82.328125 59.671875 C82.796296 60.33252 83.264468 60.993164 83.746826 61.673828 C83.99485 62.016396 83.99485 62.016396 85.25 63.75 C89.208538 69.345739 92.842233 74.902242 96 81 C92.158576 81.658455 88.820459 81.86341 85 81 C81.744362 77.985825 79.867126 74.39852 77.8125 70.5 C77.24209 69.498398 76.67168 68.496797 76.083984 67.464844 C74.684301 64.994814 73.326462 62.509884 72 60 C68.480384 64.16775 65.652974 68.611811 62.8125 73.25 C61.924337 74.693423 61.035073 76.136169 60.144531 77.578125 C59.756282 78.211377 59.368032 78.844629 58.968018 79.49707 C58 81 58 81 57 82 C45.493027 84.003841 33.350327 82.880003 21.75 82.5625 C14.5725 82.376875 7.395 82.19125 0 82 C0 54.94 0 27.88 0 0 Z " fill="#F5FBF8" transform="translate(363,247)"/>
<path d="M0 0 C0.422813 0.2475 0.422813 0.2475 2.5625 1.5 C2.5625 4.47 2.5625 7.44 2.5625 10.5 C1.28375 10.005 0.005 9.51 -1.3125 9 C-7.900007 6.838636 -14.246276 6.249365 -20.75 9 C-25.782507 11.832059 -27.940738 16.506476 -30.4375 21.5 C-31.105104 29.741082 -31.285205 37.496108 -26.4375 44.5 C-22.266051 49.128746 -18.770039 50.302327 -12.75 50.8125 C-8.412133 50.788084 -5.15298 49.298011 -1.320312 47.375 C0.5625 46.5 0.5625 46.5 2.5625 46.5 C2.5625 49.8 2.5625 53.1 2.5625 56.5 C-7.103517 59.552426 -16.318561 61.807146 -25.875 57.3125 C-33.873479 52.712736 -38.267446 46.294981 -41.0625 37.542969 C-42.872821 27.680492 -41.475405 17.626809 -35.875 9.25 C-27.708338 -0.865991 -12.138088 -5.305721 0 0 Z " fill="#F5FBF7" transform="translate(504.4375,270.5)"/>
<path d="M0 0 C0.33 1.32 0.66 2.64 1 4 C1.66 4 2.32 4 3 4 C3.33 3.01 3.66 2.02 4 1 C4.66 1.33 5.32 1.66 6 2 C5.67 2.66 5.34 3.32 5 4 C5.391875 4.721875 5.78375 5.44375 6.1875 6.1875 C7 9 7 9 5.25 12.375 C4.868438 12.976992 4.486875 13.578984 4.09375 14.199219 C0.29018 20.461525 0.268519 27.914327 1 35 C2.475112 40.726052 4.458038 45.290916 8 50 C8 50.66 8 51.32 8 52 C8.66 52.33 9.32 52.66 10 53 C9.01 54.32 8.02 55.64 7 57 C6.34 56.34 5.68 55.68 5 55 C5.66 55 6.32 55 7 55 C7 54.34 7 53.68 7 53 C6.01 53 5.02 53 4 53 C3.01 54.98 2.02 56.96 1 59 C-4.28 58.67 -9.56 58.34 -15 58 C-15 57.67 -15 57.34 -15 57 C-13.35 56.835 -13.35 56.835 -5 56 C-5.955849 54.477604 -6.914932 52.957239 -7.875 51.4375 C-8.188242 50.941211 -8.188242 50.941211 -9.773438 48.429688 C-11.370378 45.936581 -13.031365 43.497607 -14.726562 41.070312 C-15.18563 40.405881 -15.644697 39.74145 -16.117676 39.056885 C-17.030227 37.740278 -17.952932 36.430644 -18.88623 35.128662 C-22.052596 30.532502 -22.052596 30.532502 -21.81543 28.131348 C-19.909181 23.148848 -16.632623 18.772151 -13.75 14.3125 C-13.080977 13.241934 -12.411953 12.171367 -11.722656 11.068359 C-11.066523 10.051934 -10.410391 9.035508 -9.734375 7.988281 C-9.138506 7.055403 -8.542637 6.122524 -7.928711 5.161377 C-5.635485 2.591513 -4.328121 2.447587 -1 2 C-0.67 1.34 -0.34 0.68 0 0 Z " fill="#07723E" transform="translate(463,271)"/>
<path d="M0 0 C0.33 0 0.66 0 1 0 C1 23.76 1 47.52 1 72 C9.91 72 18.82 72 28 72 C28 78.6 28 85.2 28 92 C20.08 92 12.16 92 4 92 C4 94.97 4 97.94 4 101 C11.92 101 19.84 101 28 101 C28 107.6 28 114.2 28 121 C20.41 121 12.82 121 5 121 C5 120.67 5 120.34 5 120 C12.26 120 19.52 120 27 120 C27 114.06 27 108.12 27 102 C26.67 102.165 26.67 102.165 25 103 C23.405525 103.084005 21.807595 103.107275 20.210938 103.097656 C19.269922 103.094434 18.328906 103.091211 17.359375 103.087891 C16.374531 103.079512 15.389688 103.071133 14.375 103.0625 C13.382422 103.057988 12.389844 103.053477 11.367188 103.048828 C8.911398 103.037021 6.455729 103.020554 4 103 C3.67 101.68 3.34 100.36 3 99 C2.34 99 1.68 99 1 99 C1 142.23 1 185.46 1 230 C0.67 230 0.34 230 0 230 C0 154.1 0 78.2 0 0 Z " fill="#056937" transform="translate(191,174)"/>
<path d="M0 0 C3.3 0 6.6 0 10 0 C10 28.71 10 57.42 10 87 C6.7 87 3.4 87 0 87 C0 58.29 0 29.58 0 0 Z " fill="#FDFEFC" transform="translate(574,242)"/>
<path d="M0 0 C12.21 0 24.42 0 37 0 C37 6.93 37 13.86 37 21 C24.79 21 12.58 21 0 21 C0 14.07 0 7.14 0 0 Z " fill="#02713B" transform="translate(227,332)"/>
<path d="M0 0 C11.88 0 23.76 0 36 0 C36 6.6 36 13.2 36 20 C24.12 20 12.24 20 0 20 C0 13.4 0 6.8 0 0 Z " fill="#046F3A" transform="translate(228,304)"/>
<path d="M0 0 C11.88 0 23.76 0 36 0 C36 6.6 36 13.2 36 20 C24.12 20 12.24 20 0 20 C0 13.4 0 6.8 0 0 Z " fill="#01723B" transform="translate(228,275)"/>
<path d="M0 0 C11.88 0 23.76 0 36 0 C36 6.6 36 13.2 36 20 C24.12 20 12.24 20 0 20 C0 13.4 0 6.8 0 0 Z " fill="#036F3A" transform="translate(228,246)"/>
<path d="M0 0 C11.88 0 23.76 0 36 0 C36 6.6 36 13.2 36 20 C24.12 20 12.24 20 0 20 C0 13.4 0 6.8 0 0 Z " fill="#02713B" transform="translate(228,217)"/>
<path d="M0 0 C0.33 0 0.66 0 1 0 C1 6.93 1 13.86 1 21 C8.59 21 16.18 21 24 21 C24 27.93 24 34.86 24 42 C16.41 42 8.82 42 1 42 C1 44.97 1 47.94 1 51 C-0.32 51 -1.64 51 -3 51 C-3 35.16 -3 19.32 -3 3 C-2.34 3 -1.68 3 -1 3 C-0.67 2.01 -0.34 1.02 0 0 Z " fill="#036F3B" transform="translate(195,195)"/>
<path d="M0 0 C12.54 0 25.08 0 38 0 C38 7.59 38 15.18 38 23 C25.79 23 13.58 23 1 23 C1 23.99 1 24.98 1 26 C4.109914 27.554957 7.43344 27.24077 10.851562 27.316406 C11.625594 27.337187 12.399626 27.357968 13.197113 27.379379 C15.672984 27.444834 18.148962 27.503741 20.625 27.5625 C22.302094 27.605689 23.979178 27.649303 25.65625 27.693359 C29.770725 27.801313 33.88528 27.900416 38 28 C38 35.92 38 43.84 38 52 C32.624715 52.211445 27.250759 52.413671 21.874512 52.592041 C20.044886 52.655563 18.215441 52.724554 16.38623 52.799072 C13.760374 52.905103 11.134497 52.991599 8.507812 53.074219 C7.686931 53.111576 6.86605 53.148934 6.020294 53.187424 C3.715332 53.248779 3.715332 53.248779 0 53 C-2.125082 49.812376 -2.502016 47.734878 -3 44 C-3.99 45.98 -4.98 47.96 -6 50 C-6.66 50 -7.32 50 -8 50 C-8 43.4 -8 36.8 -8 30 C-15.59 30 -23.18 30 -31 30 C-31 27.03 -31 24.06 -31 21 C-23.41 21 -15.82 21 -8 21 C-8 14.4 -8 7.8 -8 1 C-7.67 1 -7.34 1 -7 1 C-7 7.93 -7 14.86 -7 22 C-14.59 22 -22.18 22 -30 22 C-30 23.98 -30 25.96 -30 28 C-26.748453 27.977159 -23.500405 27.899804 -20.25 27.8125 C-19.789805 27.8096 -19.789805 27.8096 -17.460938 27.794922 C-10.533293 27.56902 -10.533293 27.56902 -7.609375 24.449219 C-7.343828 24.045098 -7.343828 24.045098 -6 22 C-4 22 -2 22 0 22 C0 14.74 0 7.48 0 0 Z M1 1 C1 7.6 1 14.2 1 21 C12.88 21 24.76 21 37 21 C37 14.4 37 7.8 37 1 C25.12 1 13.24 1 1 1 Z M1 30 C1 36.6 1 43.2 1 50 C12.88 50 24.76 50 37 50 C37 43.4 37 36.8 37 30 C25.12 30 13.24 30 1 30 Z " fill="#BCDBCC" transform="translate(227,216)"/>
<path d="M0 0 C9.24 0 18.48 0 28 0 C28 6.93 28 13.86 28 21 C23.545 21.165 23.545 21.165 1 22 C0.67 14.74 0.34 7.48 0 0 Z " fill="#0D7744" transform="translate(192,332)"/>
<path d="M0 0 C0 76.56 0 153.12 0 232 C-15 230 -15 230 -19 228 C-13.72 228 -8.44 228 -3 228 C-2.67 153.09 -2.34 78.18 -2 1 C-5.96 1.99 -9.92 2.98 -14 4 C-19.25 4.1875 -19.25 4.1875 -23 4 C-23 3.67 -23 3.34 -23 3 C-20.480566 2.491879 -17.959831 1.993355 -15.4375 1.5 C-14.733027 1.356914 -14.028555 1.213828 -13.302734 1.066406 C-12.603418 0.931055 -11.904102 0.795703 -11.183594 0.65625 C-10.549939 0.530566 -9.916284 0.404883 -9.263428 0.275391 C-6.196869 -0.097717 -3.089173 0 0 0 Z " fill="#BCE0CD" transform="translate(191,172)"/>
<path d="M0 0 C7.92 0 15.84 0 24 0 C24 0.33 24 0.66 24 1 C16.41 1 8.82 1 1 1 C2.32 1.99 3.64 2.98 5 4 C4.34 4 3.68 4 3 4 C3.33 4.66 3.66 5.32 4 6 C10.93 6 17.86 6 25 6 C25.66 7.98 26.32 9.96 27 12 C27.66 12.33 28.32 12.66 29 13 C29.154687 12.680313 29.154687 12.680313 29.9375 11.0625 C31 9 31 9 32 8 C34.811634 7.91138 37.598583 7.884776 40.410156 7.902344 C41.252191 7.903759 42.094226 7.905174 42.961777 7.906631 C45.662053 7.912247 48.362248 7.924803 51.0625 7.9375 C52.888671 7.942513 54.714843 7.947076 56.541016 7.951172 C61.027401 7.961373 65.513609 7.980945 70 8 C70 15.26 70 22.52 70 30 C64.785508 30.022949 59.571191 30.042864 54.356689 30.054932 C52.582595 30.059962 50.808504 30.066787 49.034424 30.075439 C46.485178 30.087562 43.935988 30.093241 41.386719 30.097656 C40.989796 30.100237 40.989796 30.100237 38.981125 30.113297 C35.723437 30.113629 33.113185 30.037728 30 29 C29.67 26.69 29.34 24.38 29 22 C28.34 22 27.68 22 27 22 C26.67 24.64 26.34 27.28 26 30 C23.058681 30.98044 21.174983 31.116212 18.113281 31.097656 C17.175488 31.094434 16.237695 31.091211 15.271484 31.087891 C14.29502 31.079512 13.318555 31.071133 12.3125 31.0625 C11.324434 31.057988 10.336367 31.053477 9.318359 31.048828 C6.878845 31.037043 4.439453 31.02059 2 31 C2 32.65 2 34.3 2 36 C2.655972 35.994763 3.311943 35.989526 3.987793 35.984131 C6.950186 35.963387 9.912563 35.950348 12.875 35.9375 C13.39127 35.933311 13.39127 35.933311 16.003906 35.912109 C16.990039 35.908887 17.976172 35.905664 18.992188 35.902344 C19.903394 35.897107 20.8146 35.89187 21.753418 35.886475 C24 36 24 36 26 37 C26 44.26 26 51.52 26 59 C17.75 59 9.5 59 1 59 C1 58.67 1 58.34 1 58 C8.59 58 16.18 58 24 58 C24 51.4 24 44.8 24 38 C16.41 38 8.82 38 1 38 C1 35.03 1 32.06 1 29 C8.59 29 16.18 29 24 29 C24 22.4 24 15.8 24 9 C16.08 9 8.16 9 0 9 C0 6.03 0 3.06 0 0 Z M33 9 C33 15.6 33 22.2 33 29 C44.88 29 56.76 29 69 29 C69 22.4 69 15.8 69 9 C57.12 9 45.24 9 33 9 Z " fill="#B7DAC8" transform="translate(195,266)"/>
<path d="M0 0 C0.33 0 0.66 0 1 0 C1 7.59 1 15.18 1 23 C1.66 23 2.32 23 3 23 C3 24.32 3 25.64 3 27 C3.99 27 4.98 27 6 27 C8.358939 24.459604 9.257743 22.333155 10 19 C10.230742 19.603281 10.461484 20.206563 10.699219 20.828125 C12.714263 25.766179 14.299729 29.107525 19 32 C26.368466 34.456155 32.850862 33.118257 39.773438 29.972656 C42 29 42 29 46 28 C46 30.97 46 33.94 46 37 C44.418004 37.649102 42.834343 38.294147 41.25 38.9375 C40.809141 39.117324 40.809141 39.117324 38.578125 40.027344 C30.993031 42.888993 21.11843 43.869737 13.5625 40.5 C6.834276 36.428414 1.382654 29.415396 -0.5625 21.796875 C-1.107109 18.31527 -1.131998 14.960803 -1.125 11.4375 C-1.127578 10.136836 -1.130156 8.836172 -1.132812 7.496094 C-1.028783 4.757681 -0.828354 2.583675 0 0 Z " fill="#EDF8F1" transform="translate(514,288)"/>
<path d="M0 0 C3.859874 2.001416 6.994464 4.094482 9 8 C9.33 10.97 9.66 13.94 10 17 C-0.23 17 -10.46 17 -21 17 C-19.891598 10.349589 -18.393586 7.108635 -13.375 2.6875 C-8.96599 -0.445218 -5.318669 -0.653641 0 0 Z " fill="#127645" transform="translate(544,277)"/>
<path d="M0 0 C2.375 1 2.375 1 5 3 C7.642134 9.919875 7 15.206217 7 23 C-5.21 23 -17.42 23 -30 23 C-30 22.34 -30 21.68 -30 21 C-30.66 21 -31.32 21 -32 21 C-31 19 -31 19 -29 17 C-26.294434 16.772949 -26.294434 16.772949 -22.898438 16.804688 C-22.292578 16.80791 -22.292578 16.80791 -19.226562 16.824219 C-17.955547 16.840977 -16.684531 16.857734 -15.375 16.875 C-14.09625 16.884023 -12.8175 16.893047 -11.5 16.902344 C-8.333148 16.925977 -5.166666 16.958924 -2 17 C-2.011602 16.248718 -2.023203 15.497437 -2.035156 14.723389 C-2.04418 13.735725 -2.053203 12.748062 -2.0625 11.730469 C-2.074102 10.752312 -2.085703 9.774155 -2.097656 8.766357 C-1.984362 5.557009 -1.272592 2.94287 0 0 Z " fill="#FBFEFB" transform="translate(556,278)"/>
<path d="M0 0 C0.33 0.165 0.33 0.165 2 1 C2.070017 23.634948 2.122952 46.269878 2.155437 68.904912 C2.170919 79.414265 2.192035 89.923551 2.226318 100.432861 C2.256179 109.590575 2.275565 118.74824 2.282265 127.906 C2.286183 132.756968 2.29542 137.607796 2.31719 142.458719 C2.337502 147.021473 2.343845 151.584031 2.339323 156.146826 C2.340151 157.824249 2.346148 159.501678 2.357616 161.179062 C2.372478 163.464127 2.368977 165.748442 2.360764 168.033524 C2.363529 169.313894 2.366294 170.594264 2.369143 171.913434 C2 175 2 175 0.706429 176.912857 C-2.323391 178.843115 -5.847964 178.387321 -9.326904 178.340576 C-10.175903 178.341014 -11.024902 178.341452 -11.899628 178.341904 C-14.708058 178.339812 -17.515893 178.316465 -20.324219 178.292969 C-22.270489 178.287374 -24.216764 178.283103 -26.16304 178.280106 C-31.287442 178.268647 -36.411588 178.239171 -41.535889 178.205994 C-46.764125 178.175314 -51.992403 178.161605 -57.220703 178.146484 C-67.480599 178.114303 -77.740238 178.061526 -88 178 C-88 170.74 -88 163.48 -88 156 C-80.08 156 -72.16 156 -64 156 C-64 156.33 -64 156.66 -64 157 C-71.59 157 -79.18 157 -87 157 C-87 163.6 -87 170.2 -87 177 C-58.95 176.67 -30.9 176.34 -2 176 C-1.67 175.34 -1.34 174.68 -1 174 C-0.67 173.67 -0.34 173.34 0 173 C0.097031 170.772417 0.121867 168.541691 0.120255 166.311996 C0.121109 165.604687 0.121963 164.897378 0.122844 164.168636 C0.124501 161.780937 0.118974 159.393308 0.113525 157.005615 C0.113244 155.301056 0.113401 153.596496 0.113968 151.891937 C0.114256 147.249572 0.108358 142.607232 0.101394 137.964873 C0.095162 133.118841 0.094557 128.272808 0.093369 123.426773 C0.090255 114.24344 0.082041 105.060119 0.072019 95.876792 C0.060859 85.424732 0.055348 74.972672 0.050324 64.520608 C0.039858 43.013732 0.022258 21.506867 0 0 Z " fill="#BEE3D3" transform="translate(283,197)"/>
<path d="M0 0 C3.3 0 6.6 0 10 0 C10 28.71 10 57.42 10 87 C6.7 87 3.4 87 0 87 C0 58.29 0 29.58 0 0 Z M1 2 C1 29.39 1 56.78 1 85 C2.98 85 4.96 85 7 85 C8.251409 81.145087 8.133406 77.299237 8.113525 73.293945 C8.113671 72.522829 8.113817 71.751713 8.113968 70.95723 C8.113272 68.414166 8.105497 65.871176 8.097656 63.328125 C8.095791 61.562643 8.094367 59.79716 8.093369 58.031677 C8.089554 53.389085 8.079732 48.746523 8.068665 44.103943 C8.058428 39.364872 8.053866 34.625797 8.048828 29.886719 C8.038109 20.591132 8.021045 11.295569 8 2 C5.69 2 3.38 2 1 2 Z " fill="#C4E3D3" transform="translate(574,242)"/>
<path d="M0 0 C-0.319043 0.066387 -0.319043 0.066387 -1.933594 0.402344 C-2.346738 0.490645 -2.346738 0.490645 -4.4375 0.9375 C-5.261211 1.111523 -6.084922 1.285547 -6.933594 1.464844 C-9 2 -9 2 -10 3 C-11.805189 3.37089 -13.619614 3.697413 -15.4375 4 C-20.784736 4.892368 -20.784736 4.892368 -23 6 C-23 65.73 -23 125.46 -23 187 C-18.05 187.33 -13.1 187.66 -8 188 C-6.35 188.33 -4.7 188.66 -3 189 C-3 189.66 -3 190.32 -3 191 C-10.070816 191.271954 -18.569986 191.215007 -25 188 C-25 126.95 -25 65.9 -25 3 C-4 -1 -4 -1 0 0 Z " fill="#EDFCF6" transform="translate(79,192)"/>
<path d="M0 0 C3.63 0 7.26 0 11 0 C19.446469 15.744875 19.446469 15.744875 23 23 C21.68 23 20.36 23 19 23 C18.34 22.34 17.68 21.68 17 21 C16.67 22.65 16.34 24.3 16 26 C12.098344 21.407031 8.954746 16.399459 5.75 11.3125 C5.195703 10.445605 4.641406 9.578711 4.070312 8.685547 C3.808633 8.271436 3.808633 8.271436 2.484375 6.175781 C2.0071 5.422083 1.529824 4.668384 1.038086 3.891846 C0 2 0 2 0 0 Z " fill="#EEFAF2" transform="translate(411,270)"/>
<path d="M0 0 C13.86 0 27.72 0 42 0 C42 2.97 42 5.94 42 9 C31.44 9 20.88 9 10 9 C10 8.67 10 8.34 10 8 C20.23 8 30.46 8 41 8 C41 5.69 41 3.38 41 1 C27.8 1 14.6 1 1 1 C1 27.4 1 53.8 1 81 C14.86 81 28.72 81 43 81 C43 78.36 43 75.72 43 73 C43.33 73 43.66 73 44 73 C44 75.64 44 78.28 44 81 C44.66 81 45.32 81 46 81 C46 80.34 46 79.68 46 79 C46.33 79.165 46.33 79.165 48 80 C49.536689 80.224678 51.079681 80.407968 52.625 80.5625 C53.442266 80.646289 54.259531 80.730078 55.101562 80.816406 C55.728047 80.876992 56.354531 80.937578 57 81 C57 81.33 57 81.66 57 82 C45.279014 83.518156 33.529371 82.884903 21.75 82.5625 C14.5725 82.376875 7.395 82.19125 0 82 C0 54.94 0 27.88 0 0 Z " fill="#A6DAC1" transform="translate(363,247)"/>
<path d="M0 0 C11.88 0 23.76 0 36 0 C36 6.6 36 13.2 36 20 C24.12 20 12.24 20 0 20 C0 13.4 0 6.8 0 0 Z M3 5 C2.9282 6.51928 2.91608 8.041675 2.9375 9.5625 C2.946523 10.388789 2.955547 11.215078 2.964844 12.066406 C2.976445 12.704492 2.988047 13.342578 3 14 C2.34 14 1.68 14 1 14 C1 15.65 1 17.3 1 19 C1.66 18.67 2.32 18.34 3 18 C5.324163 17.914132 7.650833 17.89289 9.976562 17.902344 C10.319186 17.903051 10.319186 17.903051 12.05307 17.906631 C14.243758 17.912233 16.434343 17.924786 18.625 17.9375 C20.109374 17.942515 21.593749 17.947078 23.078125 17.951172 C26.718783 17.962203 30.359382 17.979469 34 18 C34.936034 14.207328 34.982763 11.063254 34.5625 7.1875 C34.511582 6.69959 34.511582 6.69959 34.253906 4.230469 C34.170117 3.494414 34.086328 2.758359 34 2 C29.93756 1.941805 25.875229 1.906338 21.8125 1.875 C21.237256 1.866621 21.237256 1.866621 18.326172 1.824219 C17.214355 1.817773 16.102539 1.811328 14.957031 1.804688 C13.935852 1.794214 12.914673 1.78374 11.862549 1.772949 C8.611586 2.030808 5.388007 2.611993 3 5 Z " fill="#0A683C" transform="translate(228,275)"/>
<path d="M0 0 C2.834924 0.051411 5.141527 0.353584 7.828125 1.242188 C6.360256 4.326571 4.657744 7.149828 2.789062 10.007812 C2.208984 10.897266 1.628906 11.786719 1.03125 12.703125 C0.427969 13.623516 -0.175313 14.543906 -0.796875 15.492188 C-1.102383 15.960117 -1.102383 15.960117 -2.648438 18.328125 C-4.154355 20.634061 -5.662229 22.938692 -7.171875 25.242188 C-9.171875 23.242188 -9.171875 23.242188 -10.171875 20.242188 C-12.512461 22.369993 -13.878878 24.35781 -15.171875 27.242188 C-16.161875 26.582187 -17.151875 25.922188 -18.171875 25.242188 C-17.511875 25.242188 -16.851875 25.242188 -16.171875 25.242188 C-15.887556 24.512981 -15.603237 23.783774 -15.310303 23.032471 C-7.037602 2.756105 -7.037602 2.756105 0 0 Z " fill="#F2FBF6" transform="translate(452.171875,268.7578125)"/>
<path d="M0 0 C1 2 1 2 1 3 C1.66 3.33 2.32 3.66 3 4 C3 4.99 3 5.98 3 7 C3.66 7.33 4.32 7.66 5 8 C-2.855605 23.268161 -2.855605 23.268161 -8.113281 25.0625 C-10.898499 25.0047 -13.316631 24.734611 -16 24 C-12.938776 18.405094 -9.462036 13.244254 -5.75 8.0625 C-5.195703 7.283262 -4.641406 6.504023 -4.070312 5.701172 C-2.716411 3.798707 -1.359603 1.898392 0 0 Z " fill="#F4FCF7" transform="translate(426,304)"/>
<path d="M0 0 C12.21 0 24.42 0 37 0 C37 6.93 37 13.86 37 21 C24.79 21 12.58 21 0 21 C0 14.07 0 7.14 0 0 Z M2 2 C2 7.61 2 13.22 2 19 C13.22 19 24.44 19 36 19 C36 13.39 36 7.78 36 2 C24.78 2 13.56 2 2 2 Z " fill="#2A7B54" transform="translate(227,332)"/>
<path d="M0 0 C0.66 0 1.32 0 2 0 C2 2.97 2 5.94 2 9 C0.68 9.33 -0.64 9.66 -2 10 C-2.33 10.99 -2.66 11.98 -3 13 C-3.66 12.67 -4.32 12.34 -5 12 C-6.957741 11.846211 -8.920174 11.750285 -10.882812 11.683594 C-11.93356 11.645486 -12.984307 11.607378 -14.066895 11.568115 C-14.736482 11.546564 -14.736482 11.546564 -18.125 11.4375 C-20.249375 11.365313 -20.249375 11.365313 -31 11 C-30.67 19.58 -30.34 28.16 -30 37 C-20.1 37 -10.2 37 0 37 C0 37.33 0 37.66 0 38 C-10.89 38 -21.78 38 -33 38 C-33 28.43 -33 18.86 -33 9 C-23.43 9 -13.86 9 -4 9 C-4 6.36 -4 3.72 -4 1 C-2.68 1.33 -1.36 1.66 0 2 C0 1.34 0 0.68 0 0 Z " fill="#277850" transform="translate(406,282)"/>
<path d="M0 0 C11.88 0 23.76 0 36 0 C36 6.6 36 13.2 36 20 C24.12 20 12.24 20 0 20 C0 13.4 0 6.8 0 0 Z M1 1 C1 6.94 1 12.88 1 19 C5.056849 19.022992 9.113531 19.042895 13.17041 19.054932 C14.54965 19.059951 15.928884 19.066768 17.308105 19.075439 C19.293922 19.087609 21.279777 19.092716 23.265625 19.097656 C24.459619 19.102893 25.653613 19.10813 26.883789 19.113525 C30 19 30 19 34 18 C34 12.39 34 6.78 34 1 C23.11 1 12.22 1 1 1 Z " fill="#0E673C" transform="translate(228,217)"/>
<path d="M0 0 C0.33 0 0.66 0 1 0 C1 6.27 1 12.54 1 19 C1.66 19 2.32 19 3 19 C3 21.97 3 24.94 3 28 C10.92 28 18.84 28 27 28 C27 34.6 27 41.2 27 48 C19.41 48 11.82 48 4 48 C4 47.67 4 47.34 4 47 C11.26 47 18.52 47 26 47 C26 41.06 26 35.12 26 29 C25.34 29.33 24.68 29.66 24 30 C22.405525 30.084005 20.807595 30.107275 19.210938 30.097656 C18.269922 30.094434 17.328906 30.091211 16.359375 30.087891 C15.866953 30.083701 15.866953 30.083701 13.375 30.0625 C12.382422 30.057988 11.389844 30.053477 10.367188 30.048828 C7.911398 30.037021 5.455729 30.020554 3 30 C2.67 28.68 2.34 27.36 2 26 C1.34 26 0.68 26 0 26 C0 17.42 0 8.84 0 0 Z " fill="#09663A" transform="translate(192,247)"/>
<path d="M0 0 C7.26 0 14.52 0 22 0 C22 6.6 22 13.2 22 20 C14.41 20 6.82 20 -1 20 C-1 19.34 -1 18.68 -1 18 C5.93 18 12.86 18 20 18 C20 12.72 20 7.44 20 2 C13.4 2 6.8 2 0 2 C0 1.34 0 0.68 0 0 Z " fill="#09673C" transform="translate(197,333)"/>
<path d="M0 0 C5.306346 1.480841 9.454346 3.350307 12.3125 8.25 C12.539375 8.8275 12.76625 9.405 13 10 C11.68 9.67 10.36 9.34 9 9 C8.221571 12.405629 7.900219 15.507658 8 19 C6 18 6 18 4.75 15.1875 C2.709652 11.471152 0.626586 10.095361 -3 8 C-1.68 7.34 -0.36 6.68 1 6 C0.67 4.02 0.34 2.04 0 0 Z " fill="#ECF9F0" transform="translate(547,270)"/>
<path d="M0 0 C0.66 0.99 1.32 1.98 2 3 C0.550414 5.505458 -0.908988 8.004182 -2.375 10.5 C-2.7875 11.21543 -3.2 11.930859 -3.625 12.667969 C-4.694514 14.479243 -5.841904 16.244042 -7 18 C-7.66 18 -8.32 18 -9 18 C-9.838488 16.544624 -10.670639 15.085596 -11.5 13.625 C-11.732031 13.218945 -11.732031 13.218945 -12.90625 11.164062 C-14 9 -14 9 -14 7 C-13.34 7 -12.68 7 -12 7 C-11.62875 6.525625 -11.2575 6.05125 -10.875 5.5625 C-7.898211 3.081842 -4.810977 3.312375 -1 3 C-0.67 2.01 -0.34 1.02 0 0 Z M-8 5 C-8.66 5.66 -9.32 6.32 -10 7 C-10 8.32 -10 9.64 -10 11 C-9.34 11 -8.68 11 -8 11 C-7.67 9.02 -7.34 7.04 -7 5 C-7.33 5 -7.66 5 -8 5 Z " fill="#127244" transform="translate(443,276)"/>
<path d="M0 0 C0.66 0.33 1.32 0.66 2 1 C5.09188 1.361497 8.204222 1.467853 11.3125 1.625 C12.167793 1.676562 13.023086 1.728125 13.904297 1.78125 C18.108747 2.002708 21.894642 2.134264 26 1 C26 2.32 26 3.64 26 5 C16.43 5 6.86 5 -3 5 C-3 4.01 -3 3.02 -3 2 C-2.01 1.34 -1.02 0.68 0 0 Z " fill="#036C3B" transform="translate(527,288)"/>
<path d="M0 0 C0.99 0.33 1.98 0.66 3 1 C5.630457 1.119807 8.236459 1.185288 10.86792 1.205322 C11.668151 1.215222 12.468382 1.225121 13.292862 1.235321 C15.938701 1.266916 18.584558 1.291686 21.230469 1.316406 C23.064646 1.336978 24.898819 1.357974 26.732986 1.379379 C31.561312 1.434582 36.389679 1.483999 41.218079 1.532227 C46.144773 1.582455 51.071406 1.638134 55.998047 1.693359 C65.665312 1.800919 75.33263 1.902369 85 2 C85 2.33 85 2.66 85 3 C56.95 3 28.9 3 0 3 C0 2.01 0 1.02 0 0 Z " fill="#10663E" transform="translate(196,192)"/>
<path d="M0 0 C0.33 0 0.66 0 1 0 C1 6.93 1 13.86 1 21 C8.59 21 16.18 21 24 21 C24 21.33 24 21.66 24 22 C19.545 22.165 19.545 22.165 -3 23 C-3 16.4 -3 9.8 -3 3 C-2.34 3 -1.68 3 -1 3 C-0.67 2.01 -0.34 1.02 0 0 Z " fill="#398D65" transform="translate(195,195)"/>
<path d="M0 0 C0.78375 0.165 1.5675 0.33 2.375 0.5 C5 1 5 1 8 0 C9.25665 2.906003 10 4.796046 10 8 C9.34 8 8.68 8 8 8 C7.67 9.98 7.34 11.96 7 14 C6.67 14 6.34 14 6 14 C6 11.03 6 8.06 6 5 C4.741875 5.639375 3.48375 6.27875 2.1875 6.9375 C-1.68424 8.905105 -4.80671 10.134316 -9.1875 10.0625 C-9.816562 10.052188 -9.816562 10.052188 -13 10 C-13.33 9.34 -13.66 8.68 -14 8 C-13.229141 7.939414 -12.458281 7.878828 -11.664062 7.816406 C-10.661172 7.732617 -9.658281 7.648828 -8.625 7.5625 C-7.627266 7.481289 -6.629531 7.400078 -5.601562 7.316406 C-3 7 -3 7 -1 6 C-1.020625 5.195625 -1.04125 4.39125 -1.0625 3.5625 C-1 1 -1 1 0 0 Z " fill="#117144" transform="translate(501,312)"/>
<path d="M0 0 C0.66 0.66 1.32 1.32 2 2 C4.125 1.625 4.125 1.625 6 1 C6 4.562295 5.23891 5.411097 3.125 8.1875 C2.591328 8.90293 2.057656 9.618359 1.507812 10.355469 C1.010234 10.898164 0.512656 11.440859 0 12 C-0.66 12 -1.32 12 -2 12 C-2 12.66 -2 13.32 -2 14 C-2.66 14 -3.32 14 -4 14 C-4.33 11.03 -4.66 8.06 -5 5 C-4.34 4.67 -3.68 4.34 -3 4 C-3 3.01 -3 2.02 -3 1 C-2.01 0.67 -1.02 0.34 0 0 Z " fill="#066E3E" transform="translate(411,314)"/>
<path d="M0 0 C1 2 1 2 1 3 C1.66 3.33 2.32 3.66 3 4 C3 4.99 3 5.98 3 7 C3.66 7.33 4.32 7.66 5 8 C4.175 9.32 4.175 9.32 0 16 C-1.505595 14.03618 -2.891317 12.217366 -4 10 C-4.33 10.66 -4.66 11.32 -5 12 C-5.66 12 -6.32 12 -7 12 C-7.33 12.99 -7.66 13.98 -8 15 C-8.66 14.67 -9.32 14.34 -10 14 C-6.7 9.38 -3.4 4.76 0 0 Z " fill="#E7F6ED" transform="translate(426,304)"/>
<path d="M0 0 C0.33 0.66 0.66 1.32 1 2 C1.66 1.67 2.32 1.34 3 1 C4.707027 0.93004 6.41668 0.915598 8.125 0.9375 C9.035078 0.946523 9.945156 0.955547 10.882812 0.964844 C11.232148 0.970645 11.232148 0.970645 13 1 C17.592255 10.225513 17.592255 10.225513 17 16 C15.096102 13.144152 14.305378 11.068824 13.375 7.8125 C13.244805 7.361973 13.244805 7.361973 12.585938 5.082031 C12.489258 4.738496 12.489258 4.738496 12 3 C11.453438 3.0825 11.453438 3.0825 8.6875 3.5 C3.460948 4.166221 -1.740401 4.087015 -7 4 C-6.699648 4.554297 -6.399297 5.108594 -6.089844 5.679688 C-5.899707 6.041914 -5.899707 6.041914 -4.9375 7.875 C-4.554648 8.594297 -4.171797 9.313594 -3.777344 10.054688 C-3.52082 10.696641 -3.264297 11.338594 -3 12 C-3.33 12.66 -3.66 13.32 -4 14 C-6 12.4375 -6 12.4375 -8 10 C-8.25 6.25 -8.25 6.25 -8 3 C-5.69 3 -3.38 3 -1 3 C-0.67 2.01 -0.34 1.02 0 0 Z " fill="#E2F8ED" transform="translate(95,240)"/>
<path d="M0 0 C0.67305 1.601499 1.338222 3.20631 2 4.8125 C2.37125 5.70582 2.7425 6.599141 3.125 7.519531 C4 10 4 10 4 13 C3.34 13 2.68 13 2 13 C-1.130865 8.905792 -1 7.545186 -1 2 C-5.29 2 -9.58 2 -14 2 C-14 3.98 -14 5.96 -14 8 C-14.33 8.165 -14.33 8.165 -16 9 C-19 3.25 -19 3.25 -19 1 C-12.638494 0.345139 -6.39629 -0.120685 0 0 Z " fill="#1B7148" transform="translate(107,243)"/>
<path d="M0 0 C0.66 0 1.32 0 2 0 C2 2.97 2 5.94 2 9 C0.68 9.33 -0.64 9.66 -2 10 C-2.33 10.99 -2.66 11.98 -3 13 C-3.66 12.67 -4.32 12.34 -5 12 C-5 11.34 -5 10.68 -5 10 C-14.24 10 -23.48 10 -33 10 C-33 9.67 -33 9.34 -33 9 C-23.43 9 -13.86 9 -4 9 C-4 6.36 -4 3.72 -4 1 C-2.68 1.33 -1.36 1.66 0 2 C0 1.34 0 0.68 0 0 Z " fill="#3B8D64" transform="translate(406,282)"/>
<path d="M0 0 C0.66 0 1.32 0 2 0 C5 3.461538 5 3.461538 5 6 C5.66 6.33 6.32 6.66 7 7 C6.01 8.32 5.02 9.64 4 11 C3.34 10.34 2.68 9.68 2 9 C2.66 9 3.32 9 4 9 C4 8.34 4 7.68 4 7 C3.01 7 2.02 7 1 7 C0.01 8.98 -0.98 10.96 -2 13 C-7.28 12.67 -12.56 12.34 -18 12 C-18 11.67 -18 11.34 -18 11 C-16.396027 10.831478 -14.791813 10.665251 -13.1875 10.5 C-12.29418 10.407188 -11.400859 10.314375 -10.480469 10.21875 C-8 10 -8 10 -5 10 C-3 9 -3 9 -2.148438 6.933594 C-2.02082 6.521738 -2.02082 6.521738 -1.375 4.4375 C-1.114609 3.611211 -0.854219 2.784922 -0.585938 1.933594 C-0.392578 1.295508 -0.199219 0.657422 0 0 Z " fill="#137445" transform="translate(466,317)"/>
<path d="M0 0 C0.33 0 0.66 0 1 0 C1 2.64 1 5.28 1 8 C1.66 8 2.32 8 3 8 C3 7.34 3 6.68 3 6 C3.66 6.33 4.32 6.66 5 7 C6.536689 7.224678 8.079681 7.407968 9.625 7.5625 C10.442266 7.646289 11.259531 7.730078 12.101562 7.816406 C12.728047 7.876992 13.354531 7.937578 14 8 C14 8.33 14 8.66 14 9 C2.28016 10.518007 -9.472084 9.88613 -21.25 9.5625 C-23.363266 9.509174 -25.476548 9.456435 -27.589844 9.404297 C-32.726759 9.276298 -37.863408 9.140349 -43 9 C-43 8.67 -43 8.34 -43 8 C-28.81 8 -14.62 8 0 8 C0 5.36 0 2.72 0 0 Z " fill="#6AAD8C" transform="translate(406,320)"/>
<path d="M0 0 C0.533672 0.360937 1.067344 0.721875 1.617188 1.09375 C7.486318 4.749264 12.113445 6.177548 19 5 C21.681077 4.135883 24.209658 3.137631 26.773438 1.972656 C29 1 29 1 33 0 C33 2.97 33 5.94 33 9 C32.67 9 32.34 9 32 9 C32 7.35 32 5.7 32 4 C30.519886 4.307983 29.040927 4.621518 27.5625 4.9375 C27.150645 5.024512 27.150645 5.024512 25.066406 5.464844 C23 6 23 6 22 7 C19.009818 7.126678 16.053059 7.185208 13.0625 7.1875 C12.225254 7.199746 11.388008 7.211992 10.525391 7.224609 C10.124814 7.225576 10.124814 7.225576 8.097656 7.230469 C7.360393 7.234578 6.62313 7.238687 5.863525 7.24292 C3.066323 6.87829 1.949215 4.949215 0 3 C0 2.01 0 1.02 0 0 Z " fill="#E9FAF2" transform="translate(527,316)"/>
<path d="M0 0 C5.272936 6.950688 5.272936 6.950688 5 12 C3.68 12.33 2.36 12.66 1 13 C1.33 15.97 1.66 18.94 2 22 C-1.019536 17.470696 -1.13607 14.289864 -1.125 8.9375 C-1.127578 7.688398 -1.130156 6.439297 -1.132812 5.152344 C-1 2 -1 2 0 0 Z " fill="#157247" transform="translate(474,290)"/>
<path d="M0 0 C2.31 0 4.62 0 7 0 C7.66 2.31 8.32 4.62 9 7 C10.32 7.33 11.64 7.66 13 8 C13.369231 12.553846 13.369231 12.553846 11.5 14.8125 C11.005 15.204375 10.51 15.59625 10 16 C9.67 15.34 9.34 14.68 9 14 C8.01 13.34 7.02 12.68 6 12 C5.707031 9.835938 5.707031 9.835938 5.8125 7.375 C5.83957 6.557734 5.866641 5.740469 5.894531 4.898438 C5.929336 4.271953 5.964141 3.645469 6 3 C4.02 2.34 2.04 1.68 0 1 C0 0.67 0 0.34 0 0 Z M4 14 C4.825 14.165 4.825 14.165 9 15 C9 15.99 9 16.98 9 18 C8.01 18.33 7.02 18.66 6 19 C5.34 17.35 4.68 15.7 4 14 Z " fill="#02733E" transform="translate(500,269)"/>
<path d="M0 0 C2.64 0.66 5.28 1.32 8 2 C8 2.33 8 2.66 8 3 C4.124617 3.743502 0.246934 4.4734 -3.633301 5.191162 C-5.596708 5.557225 -7.558144 5.933811 -9.519531 6.310547 C-10.141504 6.424951 -10.141504 6.424951 -13.289062 7.003906 C-14.430688 7.218616 -15.572314 7.433325 -16.748535 7.654541 C-20.082073 8.00872 -22.738266 7.710669 -26 7 C-26 6.67 -26 6.34 -26 6 C-25.506289 5.933613 -25.506289 5.933613 -23.007812 5.597656 C-21.726484 5.421055 -20.445156 5.244453 -19.125 5.0625 C-18.486914 4.975488 -18.486914 4.975488 -15.257812 4.535156 C-12 4 -12 4 -10 3 C-8.45976 2.930495 -6.91665 2.915476 -5.375 2.9375 C-4.966367 2.942012 -4.966367 2.942012 -2.898438 2.964844 C-2.585195 2.970645 -2.585195 2.970645 -1 3 C-0.67 2.01 -0.34 1.02 0 0 Z " fill="#167044" transform="translate(176,170)"/>
<path d="M0 0 C-5.06673 2.533365 -9.308543 3.430451 -14.960938 3.789062 C-17 4 -17 4 -18 5 C-20.696549 5.073196 -23.366915 5.092425 -26.0625 5.0625 C-26.821113 5.057988 -27.579727 5.053477 -28.361328 5.048828 C-30.240919 5.037007 -32.120469 5.019071 -34 5 C-34 4.67 -34 4.34 -34 4 C-29.802535 3.259159 -25.60338 2.529084 -21.402344 1.808838 C-19.974099 1.562427 -18.546354 1.313104 -17.119141 1.060791 C-15.065053 0.698179 -13.009385 0.346149 -10.953125 -0.003906 C-9.717236 -0.218616 -8.481348 -0.433325 -7.208008 -0.654541 C-4.363773 -0.960827 -2.652737 -0.952784 0 0 Z " fill="#D5EEE1" transform="translate(114,186)"/>
<path d="M0 0 C1.793782 2.690673 2.97314 5.085783 4.1875 8.0625 C4.552305 8.940352 4.917109 9.818203 5.292969 10.722656 C6 13 6 13 5 15 C4.649375 14.484375 4.29875 13.96875 3.9375 13.4375 C2 12 2 12 -1.6875 12.3125 C-2.780625 12.539375 -3.87375 12.76625 -5 13 C-3.581926 8.527613 -1.886956 4.288537 0 0 Z " fill="#E2F3E9" transform="translate(118,299)"/>
<path d="M0 0 C3.63 0 7.26 0 11 0 C9.217392 3.565217 7.240077 6.714554 5 10 C4.34 9.01 3.68 8.02 3 7 C3.66 5.68 4.32 4.36 5 3 C2.115622 4.292997 0.127806 5.659414 -2 8 C-2.66 7.67 -3.32 7.34 -4 7 C-2.68 4.69 -1.36 2.38 0 0 Z " fill="#E8F8F0" transform="translate(449,270)"/>
<path d="M0 0 C0.33 0 0.66 0 1 0 C1.085078 0.290039 1.085078 0.290039 1.515625 1.757812 C3.069111 6.765325 4.853502 10.737003 8 15 C8.33 15.495 8.33 15.495 10 18 C8.125 18.625 8.125 18.625 6 19 C5.34 18.34 4.68 17.68 4 17 C1.875 17.375 1.875 17.375 0 18 C-0.33 16.68 -0.66 15.36 -1 14 C-0.34 14 0.32 14 1 14 C0.67 9.38 0.34 4.76 0 0 Z " fill="#187648" transform="translate(513,307)"/>
<path d="M0 0 C7.69767 0.796311 15.343529 1.878213 23 3 C19.188798 5.149048 16.351624 5 12 5 C11.34 5.66 10.68 6.32 10 7 C10 6.34 10 5.68 10 5 C8.35 5.66 6.7 6.32 5 7 C4.34 6.34 3.68 5.68 3 5 C3 4.34 3 3.68 3 3 C2.01 2.67 1.02 2.34 0 2 C0 1.34 0 0.68 0 0 Z " fill="#117045" transform="translate(81,385)"/>
<path d="M0 0 C2 1.75 2 1.75 4 4 C4 5.32 4 6.64 4 8 C5.98 8 7.96 8 10 8 C10 7.67 10 7.34 10 7 C11.65 7 13.3 7 15 7 C15 7.99 15 8.98 15 10 C12.958409 10.027262 10.91671 10.046513 8.875 10.0625 C7.738047 10.074102 6.601094 10.085703 5.429688 10.097656 C2.187084 10.005327 -0.819326 9.613899 -4 9 C-2.801003 5.916865 -1.522995 2.937205 0 0 Z " fill="#157044" transform="translate(90,322)"/>
<path d="M0 0 C4.29 0 8.58 0 13 0 C13.33 1.32 13.66 2.64 14 4 C11.708909 4.194414 9.417097 4.380331 7.125 4.5625 C6.486914 4.614707 6.486914 4.614707 3.257812 4.878906 C0 5 0 5 -2 4 C-2 3.34 -2 2.68 -2 2 C-1.34 2 -0.68 2 0 2 C0 1.34 0 0.68 0 0 Z " fill="#FEFEFD" transform="translate(487,271)"/>
<path d="M0 0 C-1.98 4.29 -3.96 8.58 -6 13 C-7.391959 8.824123 -5.823232 6.865252 -4 3 C-15.52164 2.630979 -15.52164 2.630979 -21 5 C-20.67 3.68 -20.34 2.36 -20 1 C-13.299802 0.298671 -6.737426 -0.11045 0 0 Z " fill="#287750" transform="translate(153,240)"/>
<path d="M0 0 C0 0.33 0 0.66 0 1 C-21.401006 5.569147 -21.401006 5.569147 -32 6 C-32 5.34 -32 4.68 -32 4 C-30.02 4 -28.04 4 -26 4 C-26 3.34 -26 2.68 -26 2 C-17.410238 0.164844 -8.7602 -0.171023 0 0 Z " fill="#1F754B" transform="translate(144,179)"/>
<path d="M0 0 C2.39719 3.595784 2.817251 5.689795 3 10 C2.173546 12.669496 0.928129 15.007144 -0.4375 17.4375 C-0.775879 18.073652 -1.114258 18.709805 -1.462891 19.365234 C-2.29232 20.918954 -3.143937 22.460795 -4 24 C-4.99 23.34 -5.98 22.68 -7 22 C-5.875483 19.028061 -4.777062 16.665593 -3 14 C-2.34 14 -1.68 14 -1 14 C-1.33 13.01 -1.66 12.02 -2 11 C-1.01 11 -0.02 11 1 11 C0.67 7.37 0.34 3.74 0 0 Z " fill="#E0F5EB" transform="translate(104,280)"/>
<path d="M0 0 C2.968655 2.544562 4.361975 5.489947 6 9 C2.37 9 -1.26 9 -5 9 C-5.66 7.35 -6.32 5.7 -7 4 C-6.175 4.33 -6.175 4.33 -2 6 C-1.34 4.02 -0.68 2.04 0 0 Z " fill="#EAF9EF" transform="translate(453,319)"/>
<path d="M0 0 C3.63 0 7.26 0 11 0 C11.66 1.98 12.32 3.96 13 6 C11.68 5.67 10.36 5.34 9 5 C9 4.34 9 3.68 9 3 C7.68 3 6.36 3 5 3 C5.33 4.32 5.66 5.64 6 7 C5.01 7 4.02 7 3 7 C0 2.777778 0 2.777778 0 0 Z " fill="#D3EEDE" transform="translate(411,270)"/>
<path d="M0 0 C0.66 0.66 1.32 1.32 2 2 C1.976562 4.382812 1.976562 4.382812 1.625 7.125 C1.514141 8.035078 1.403281 8.945156 1.289062 9.882812 C1.193672 10.581484 1.098281 11.280156 1 12 C2.32 12 3.64 12 5 12 C5 8.37 5 4.74 5 1 C5.33 1 5.66 1 6 1 C6 7.27 6 13.54 6 20 C5.67 20 5.34 20 5 20 C4.67 18.02 4.34 16.04 4 14 C3.01 15.98 2.02 17.96 1 20 C0.67 20 0.34 20 0 20 C0 13.4 0 6.8 0 0 Z " fill="#F4FEF9" transform="translate(220,246)"/>
<path d="M0 0 C2.861342 3.462731 5.365745 7.006863 7.75 10.8125 C8.363594 11.78832 8.977188 12.764141 9.609375 13.769531 C10.068281 14.505586 10.527188 15.241641 11 16 C10.34 16.66 9.68 17.32 9 18 C6.9375 17.8125 6.9375 17.8125 5 17 C3.538925 12.616776 2.606247 8.590156 2 4 C1.34 4 0.68 4 0 4 C0 2.68 0 1.36 0 0 Z " fill="#1B754A" transform="translate(415,278)"/>
<path d="M0 0 C1.32 0 2.64 0 4 0 C4.026843 2.812563 4.046762 5.624872 4.0625 8.4375 C4.070879 9.239941 4.079258 10.042383 4.087891 10.869141 C4.096514 12.912952 4.052281 14.956839 4 17 C3 18 3 18 -0.5625 18.0625 C-1.696875 18.041875 -2.83125 18.02125 -4 18 C-3.67 17.34 -3.34 16.68 -3 16 C-1.68 15.67 -0.36 15.34 1 15 C1.33 10.71 1.66 6.42 2 2 C1.34 2 0.68 2 0 2 C0 1.34 0 0.68 0 0 Z " fill="#0C6E43" transform="translate(260,247)"/>
<path d="M0 0 C1.32 0 2.64 0 4 0 C4 2.64 4 5.28 4 8 C3.67 8.165 3.67 8.165 2 9 C1.67 14.94 1.34 20.88 1 27 C0.67 27 0.34 27 0 27 C0 18.09 0 9.18 0 0 Z " fill="#137345" transform="translate(192,295)"/>
<path d="M0 0 C0.66 0 1.32 0 2 0 C1.310639 3.911215 0.217498 7.555086 -1.0625 11.3125 C-1.424727 12.381133 -1.786953 13.449766 -2.160156 14.550781 C-2.29873 14.954902 -2.29873 14.954902 -3 17 C-3.66 17 -4.32 17 -5 17 C-6 13 -7 9 -8 5 C-7.34 5 -6.68 5 -6 5 C-6 5.99 -6 6.98 -6 8 C-5.01 7.67 -4.02 7.34 -3 7 C-1.3125 3.4375 -1.3125 3.4375 0 0 Z " fill="#D4F1E0" transform="translate(123,259)"/>
<path d="M0 0 C3.974975 3.407122 5.867938 7.327609 8 12 C7.34 12.66 6.68 13.32 6 14 C5.67 12.35 5.34 10.7 5 9 C4.01 9 3.02 9 2 9 C1.67 7.35 1.34 5.7 1 4 C0.34 4 -0.32 4 -1 4 C-1.33 5.32 -1.66 6.64 -2 8 C-2.66 8 -3.32 8 -4 8 C-2.875483 5.028061 -1.777062 2.665593 0 0 Z " fill="#1E714C" transform="translate(434,306)"/>
<path d="M0 0 C0.764411 2.622433 1.023784 3.88901 0.4375 6.625 C0.293125 7.40875 0.14875 8.1925 0 9 C0.66 9.66 1.32 10.32 2 11 C1.67 11.495 1.67 11.495 0 14 C-2 13 -2 13 -3 12 C-3.66 11.67 -4.32 11.34 -5 11 C-5 11.66 -5 12.32 -5 13 C-5.66 13 -6.32 13 -7 13 C-5.358217 8.223905 -2.734533 4.206171 0 0 Z " fill="#147245" transform="translate(429,314)"/>
<path d="M0 0 C0.66 0 1.32 0 2 0 C2.33 6.93 2.66 13.86 3 21 C1.68 21 0.36 21 -1 21 C-0.67 14.07 -0.34 7.14 0 0 Z " fill="#F4FEF9" transform="translate(225,333)"/>
<path d="M0 0 C1.98 0 3.96 0 6 0 C4.63922 2.809759 3.151749 5.476159 1.5 8.125 C1.077188 8.808203 0.654375 9.491406 0.21875 10.195312 C-1 12 -1 12 -3 14 C-2.588463 9.029062 -2.203992 4.554916 0 0 Z " fill="#177243" transform="translate(517,274)"/>
<path d="M0 0 C2.667353 2.489529 4.557463 4.634081 6 8 C5.38125 8.061875 4.7625 8.12375 4.125 8.1875 C2 9 2 9 0.75 11.5625 C0.5025 12.366875 0.255 13.17125 0 14 C-4 9.25 -4 9.25 -4 7 C-2.35 6.34 -0.7 5.68 1 5 C0.67 3.35 0.34 1.7 0 0 Z " fill="#E6F7ED" transform="translate(444,306)"/>
<path d="M0 0 C9.28583 -0.442182 17.929816 1.232261 27 3 C26.34 3.33 26.34 3.33 23 5 C23 4.34 23 3.68 23 3 C22.01 3.023203 21.02 3.046406 20 3.070312 C13.061407 3.182693 6.668299 3.177404 0 1 C0 0.67 0 0.34 0 0 Z " fill="#20764E" transform="translate(104,390)"/>
<path d="M0 0 C0.226875 0.237188 0.226875 0.237188 1.375 1.4375 C3 3 3 3 5 4 C6 7 6 7 5 10 C4.34 10 3.68 10 3 10 C2.67 10.66 2.34 11.32 2 12 C0.68 8.7 -0.64 5.4 -2 2 C-1.34 1.34 -0.68 0.68 0 0 Z " fill="#0E7343" transform="translate(98,260)"/>
<path d="M0 0 C3.775454 1.090687 6.470435 1.908309 9 5 C8.67 5.165 8.67 5.165 7 6 C7 5.34 7 4.68 7 4 C5.291597 5.634124 4.06547 6.869061 3 9 C2.01 8.835 2.01 8.835 -3 8 C-1.68 7.34 -0.36 6.68 1 6 C0.67 4.02 0.34 2.04 0 0 Z " fill="#E2F5E9" transform="translate(547,270)"/>
<path d="M0 0 C2.334053 2.334053 3.311943 4.504517 4.6875 7.5 C4.916309 7.989844 4.916309 7.989844 6.074219 10.46875 C6.379727 11.304062 6.685234 12.139375 7 13 C6.67 13.66 6.34 14.32 6 15 C2.125 11.25 2.125 11.25 1 9 C0.67 9.165 0.67 9.165 -1 10 C-1 9.01 -1 8.02 -1 7 C-0.34 7 0.32 7 1 7 C0.67 4.69 0.34 2.38 0 0 Z " fill="#DFF4E9" transform="translate(97,265)"/>
<path d="M0 0 C0 0.33 0 0.66 0 1 C-4.62 1 -9.24 1 -14 1 C-14.33 1.99 -14.66 2.98 -15 4 C-18.3 4.66 -21.6 5.32 -25 6 C-17.710589 -1.289411 -9.620853 -0.334315 0 0 Z " fill="#C8ECDC" transform="translate(500,269)"/>
<path d="M0 0 C1.990978 2.986468 2.941249 5.596873 4 9 C3.34 9 2.68 9 2 9 C1.87625 9.78375 1.7525 10.5675 1.625 11.375 C1 14 1 14 -1 16 C-1.97869 12.933895 -1.980403 11.071674 -1.0625 8 C-0.187283 5.032377 0 3.233072 0 0 Z " fill="#157748" transform="translate(114,263)"/>
<path d="M0 0 C1.5 1.375 1.5 1.375 3 3 C3 3.66 3 4.32 3 5 C-10.54398 5.222032 -10.54398 5.222032 -17 4 C-17.33 3.34 -17.66 2.68 -18 2 C-12.06 2.33 -6.12 2.66 0 3 C0 2.01 0 1.02 0 0 Z " fill="#25734D" transform="translate(150,330)"/>
<path d="M0 0 C0.99 0.165 0.99 0.165 6 1 C6 1.66 6 2.32 6 3 C8.31 3 10.62 3 13 3 C13 3.66 13 4.32 13 5 C15.97 5 18.94 5 22 5 C22 5.33 22 5.66 22 6 C13.299426 6.672725 7.44638 5.612802 0 1 C0 0.67 0 0.34 0 0 Z " fill="#CAE9D8" transform="translate(474,324)"/>
<path d="M0 0 C0.438926 -0.00709 0.438926 -0.00709 2.660156 -0.042969 C4.9375 0.1875 4.9375 0.1875 6.9375 2.1875 C5.207769 3.917231 2.91233 3.359581 0.5625 3.375 C-0.414609 3.38918 -1.391719 3.403359 -2.398438 3.417969 C-5.0625 3.1875 -5.0625 3.1875 -8.0625 1.1875 C-5.120201 0.206734 -3.071622 0.022619 0 0 Z " fill="#21764F" transform="translate(493.0625,276.8125)"/>
<path d="M0 0 C0.980977 0.327422 1.961953 0.654844 2.972656 0.992188 C7.169805 2.191373 11.100641 2.228164 15.4375 2.125 C16.169043 2.115977 16.900586 2.106953 17.654297 2.097656 C19.436343 2.074362 21.218218 2.038502 23 2 C23 2.66 23 3.32 23 4 C19.865 4.165 19.865 4.165 4 5 C3.67 4.34 3.34 3.68 3 3 C2.01 2.67 1.02 2.34 0 2 C0 1.34 0 0.68 0 0 Z " fill="#197046" transform="translate(477,327)"/>
<path d="M0 0 C0.33 0 0.66 0 1 0 C1.108248 1.602678 1.185706 3.207457 1.25 4.8125 C1.296406 5.70582 1.342813 6.599141 1.390625 7.519531 C1 10 1 10 -1.015625 11.824219 C-1.670469 12.212227 -2.325312 12.600234 -3 13 C-4.008212 10.311436 -4.227368 8.582968 -3.175781 5.886719 C-2.166047 3.892051 -1.118934 1.935323 0 0 Z " fill="#DEF2E6" transform="translate(134,277)"/>
<path d="M0 0 C2 3.75 2 3.75 2 6 C2.66 6 3.32 6 4 6 C3.67 6.99 3.34 7.98 3 9 C2.01 8.67 1.02 8.34 0 8 C-0.66 9.32 -1.32 10.64 -2 12 C-2.66 12 -3.32 12 -4 12 C-3.523098 10.374334 -3.043403 8.749487 -2.5625 7.125 C-2.295664 6.220078 -2.028828 5.315156 -1.753906 4.382812 C-1 2 -1 2 0 0 Z " fill="#197649" transform="translate(124,262)"/>
<path d="M0 0 C0 0.66 0 1.32 0 2 C-3.618676 3.206225 -6.925063 3.108169 -10.6875 3.0625 C-11.389395 3.057988 -12.091289 3.053477 -12.814453 3.048828 C-14.543005 3.037069 -16.271514 3.019135 -18 3 C-18 2.67 -18 2.34 -18 2 C-11.880195 0.595455 -6.282607 -0.232689 0 0 Z " fill="#D3ECE0" transform="translate(168,176)"/>
<path d="M0 0 C0.99 0 1.98 0 3 0 C3.382188 1.656147 3.713951 3.32457 4 5 C2.336572 6.663428 0.217429 6.360481 -2.0625 6.5625 C-2.981602 6.646289 -3.900703 6.730078 -4.847656 6.816406 C-5.55793 6.876992 -6.268203 6.937578 -7 7 C-3.25 4 -3.25 4 -1 4 C-0.67 2.68 -0.34 1.36 0 0 Z " fill="#F8FEF7" transform="translate(502,321)"/>
<path d="M0 0 C1.125 1.75 1.125 1.75 2 4 C1.3125 6.1875 1.3125 6.1875 0 8 C-0.99 8.33 -1.98 8.66 -3 9 C-3 8.34 -3 7.68 -3 7 C-3.66 7 -4.32 7 -5 7 C-4.34 5.35 -3.68 3.7 -3 2 C-2.34 2 -1.68 2 -1 2 C-0.67 1.34 -0.34 0.68 0 0 Z " fill="#026F39" transform="translate(463,319)"/>
<path d="M0 0 C2.39591 -0.027124 4.79151 -0.046898 7.1875 -0.0625 C7.861035 -0.070879 8.53457 -0.079258 9.228516 -0.087891 C12.954341 -0.106065 16.378804 0.107006 20 1 C20 1.66 20 2.32 20 3 C13.134841 3.264045 6.741533 2.258419 0 1 C0 0.67 0 0.34 0 0 Z " fill="#D5EEE3" transform="translate(56,380)"/>
<path d="M0 0 C3.96 0 7.92 0 12 0 C12 0.33 12 0.66 12 1 C8.37 1 4.74 1 1 1 C1.680625 2.27875 2.36125 3.5575 3.0625 4.875 C4.222656 7.054688 4.222656 7.054688 5 9 C4.67 9.66 4.34 10.32 4 11 C2 9.4375 2 9.4375 0 7 C-0.25 3.25 -0.25 3.25 0 0 Z " fill="#CDEADB" transform="translate(87,243)"/>
<path d="M0 0 C0.66 1.32 1.32 2.64 2 4 C1.67 4.495 1.67 4.495 0 7 C-2.804354 7.056324 -5.351467 6.958147 -8.125 6.6875 C-8.879102 6.62627 -9.633203 6.565039 -10.410156 6.501953 C-12.274634 6.348547 -14.137525 6.176065 -16 6 C-16 5.67 -16 5.34 -16 5 C-14.396027 4.831478 -12.791813 4.665251 -11.1875 4.5 C-10.29418 4.407188 -9.400859 4.314375 -8.480469 4.21875 C-6 4 -6 4 -3 4 C-2.34 3.67 -1.68 3.34 -1 3 C-0.67 2.01 -0.34 1.02 0 0 Z " fill="#2D8B5C" transform="translate(464,323)"/>
<path d="M0 0 C0 2.97 0 5.94 0 9 C-0.33 9 -0.66 9 -1 9 C-1 7.35 -1 5.7 -1 4 C-1.603281 4.155977 -2.206563 4.311953 -2.828125 4.472656 C-3.627344 4.667305 -4.426563 4.861953 -5.25 5.0625 C-6.038906 5.259727 -6.827813 5.456953 -7.640625 5.660156 C-10.103948 6.014973 -11.656041 5.768775 -14 5 C-13.301328 4.722852 -12.602656 4.445703 -11.882812 4.160156 C-10.972734 3.79793 -10.062656 3.435703 -9.125 3.0625 C-8.220078 2.702852 -7.315156 2.343203 -6.382812 1.972656 C-1.550201 0 -1.550201 0 0 0 Z " fill="#BDE0CE" transform="translate(560,316)"/>
<path d="M0 0 C0.66 0 1.32 0 2 0 C2.66 1.65 3.32 3.3 4 5 C4.66 5 5.32 5 6 5 C5.979375 5.94875 5.95875 6.8975 5.9375 7.875 C6 11 6 11 7 13 C6.34 13.66 5.68 14.32 5 15 C4.160139 13.065321 3.32832 11.127149 2.5 9.1875 C2.035938 8.108555 1.571875 7.029609 1.09375 5.917969 C0 3 0 3 0 0 Z " fill="#167045" transform="translate(119,299)"/>
<path d="M0 0 C0 3.3 0 6.6 0 10 C-0.66 9.67 -1.32 9.34 -2 9 C-2 7.35 -2 5.7 -2 4 C-3.485 4.165 -3.485 4.165 -11 5 C-3.5 0 -3.5 0 0 0 Z " fill="#B8E2CC" transform="translate(507,317)"/>
<path d="M0 0 C2.972468 2.54783 4.415353 5.453409 6 9 C6 9.66 6 10.32 6 11 C5.34 11 4.68 11 4 11 C3.67 11.66 3.34 12.32 3 13 C2.855625 12.432813 2.855625 12.432813 2.125 9.5625 C1.75375 8.386875 1.3825 7.21125 1 6 C0.34 5.67 -0.32 5.34 -1 5 C-0.67 3.35 -0.34 1.7 0 0 Z " fill="#1C744C" transform="translate(140,309)"/>
<path d="M0 0 C1.98 0 3.96 0 6 0 C6.12375 0.804375 6.2475 1.60875 6.375 2.4375 C6.478125 2.860313 6.478125 2.860313 7 5 C7.66 5.33 8.32 5.66 9 6 C8.01 6.33 7.02 6.66 6 7 C2.8125 4.6875 2.8125 4.6875 0 2 C0 1.34 0 0.68 0 0 Z " fill="#147344" transform="translate(526,313)"/>
<path d="M0 0 C0.66 0 1.32 0 2 0 C1.846602 0.510469 1.693203 1.020938 1.535156 1.546875 C0.830946 4.774934 0.651118 7.95418 0.4375 11.25 C0.353711 12.513281 0.269922 13.776563 0.183594 15.078125 C0.123008 16.042344 0.062422 17.006562 0 18 C-2 16 -2 16 -2.1875 12.3125 C-1.922051 1.922051 -1.922051 1.922051 0 0 Z " fill="#E1FAEF" transform="translate(473,288)"/>
<path d="M0 0 C0.33 0 0.66 0 1 0 C1.33 2.31 1.66 4.62 2 7 C2.66 6.67 3.32 6.34 4 6 C4 8.64 4 11.28 4 14 C2.68 14 1.36 14 0 14 C0 9.38 0 4.76 0 0 Z " fill="#1A784E" transform="translate(192,232)"/>
<path d="M0 0 C0 2.64 0 5.28 0 8 C-1.32 8 -2.64 8 -4 8 C-4 5.69 -4 3.38 -4 1 C-2 0 -2 0 0 0 Z " fill="#19774D" transform="translate(196,324)"/>
<path d="M0 0 C2.31 0.33 4.62 0.66 7 1 C7.080861 2.790932 7.139127 4.582896 7.1875 6.375 C7.222305 7.372734 7.257109 8.370469 7.292969 9.398438 C7.196289 10.256953 7.099609 11.115469 7 12 C4 14 4 14 1.8125 13.625 C1.214375 13.41875 0.61625 13.2125 0 13 C1.98 12.34 3.96 11.68 6 11 C6 8.03 6 5.06 6 2 C5.01 2.33 4.02 2.66 3 3 C2.01 2.67 1.02 2.34 0 2 C0 1.34 0 0.68 0 0 Z " fill="#177046" transform="translate(554,314)"/>
<path d="M0 0 C-0.33 0.99 -0.66 1.98 -1 3 C-6.61 3 -12.22 3 -18 3 C-18 2.67 -18 2.34 -18 2 C-15.750519 1.663179 -13.500393 1.33067 -11.25 1 C-9.997031 0.814375 -8.744063 0.62875 -7.453125 0.4375 C-4 0 -4 0 0 0 Z " fill="#1D7249" transform="translate(554,328)"/>
<path d="M0 0 C0.66 0 1.32 0 2 0 C0.454549 5.479328 -2.155432 10.114292 -5 15 C-6.245464 12.509072 -5.776758 11.589193 -5 9 C-4.34 9 -3.68 9 -3 9 C-3 7.68 -3 6.36 -3 5 C-2.34 5 -1.68 5 -1 5 C-0.67 3.35 -0.34 1.7 0 0 Z " fill="#D7F2E3" transform="translate(92,314)"/>
<path d="M0 0 C0.66 0.33 1.32 0.66 2 1 C2.262187 4.14625 2.247544 5.61837 0.5 8.3125 C0.2525 8.590937 0.2525 8.590937 -1 10 C-3 7 -3 7 -2.75 5 C-2 3 -2 3 0 0 Z " fill="#1B7249" transform="translate(444,294)"/>
<path d="M0 0 C1.077656 0.009023 2.155313 0.018047 3.265625 0.027344 C4.085469 0.038945 4.905313 0.050547 5.75 0.0625 C5.75 0.3925 5.75 0.7225 5.75 1.0625 C1.13 1.3925 -3.49 1.7225 -8.25 2.0625 C-8.25 2.7225 -8.25 3.3825 -8.25 4.0625 C-9.9 4.0625 -11.55 4.0625 -13.25 4.0625 C-9.445892 -0.312225 -5.573744 -0.060584 0 0 Z " fill="#CCEDDD" transform="translate(540.25,268.9375)"/>
<path d="M0 0 C5.94 0 11.88 0 18 0 C18 0.33 18 0.66 18 1 C13.05 1.33 8.1 1.66 3 2 C2.34 4.31 1.68 6.62 1 9 C0.67 9 0.34 9 0 9 C0 6.03 0 3.06 0 0 Z " fill="#066B3E" transform="translate(194,235)"/>
<path d="M0 0 C0.66 0 1.32 0 2 0 C6.078775 7.054705 6.078775 7.054705 5.75 11 C5.5025 11.66 5.255 12.32 5 13 C4.67 13 4.34 13 4 13 C3.87625 12.195625 3.7525 11.39125 3.625 10.5625 C3.521875 10.139687 3.521875 10.139687 3 8 C2.34 7.67 1.68 7.34 1 7 C1.33 6.34 1.66 5.68 2 5 C1.34 5 0.68 5 0 5 C0 3.35 0 1.7 0 0 Z " fill="#247A51" transform="translate(129,288)"/>
<path d="M0 0 C4.29 0 8.58 0 13 0 C12.67 1.32 12.34 2.64 12 4 C11.67 3.34 11.34 2.68 11 2 C10.686758 2.011602 10.686758 2.011602 9.101562 2.070312 C8.69293 2.079336 8.69293 2.079336 6.625 2.125 C5.812891 2.148203 5.000781 2.171406 4.164062 2.195312 C2 2 2 2 0 0 Z " fill="#066A39" transform="translate(448,329)"/>
<path d="M0 0 C0.33 0 0.66 0 1 0 C1 2.64 1 5.28 1 8 C1.66 8 2.32 8 3 8 C3 7.34 3 6.68 3 6 C3.66 6.33 4.32 6.66 5 7 C6.536689 7.224678 8.079681 7.407968 9.625 7.5625 C10.442266 7.646289 11.259531 7.730078 12.101562 7.816406 C12.728047 7.876992 13.354531 7.937578 14 8 C14 8.33 14 8.66 14 9 C12.042356 9.194567 10.083847 9.380442 8.125 9.5625 C7.034453 9.666914 5.943906 9.771328 4.820312 9.878906 C2 10 2 10 0 9 C0 6.03 0 3.06 0 0 Z " fill="#549F79" transform="translate(406,320)"/>
<path d="M0 0 C0.99 0.33 1.98 0.66 3 1 C2.025019 2.502724 1.044906 4.00212 0.0625 5.5 C-0.482773 6.335312 -1.028047 7.170625 -1.589844 8.03125 C-2.055195 8.680938 -2.520547 9.330625 -3 10 C-3.33 10 -3.66 10 -4 10 C-4 8.35 -4 6.7 -4 5 C-3.34 5 -2.68 5 -2 5 C-1.34 3.35 -0.68 1.7 0 0 Z " fill="#147046" transform="translate(415,315)"/>
<path d="M0 0 C0.66 0.33 1.32 0.66 2 1 C1.34 2.65 0.68 4.3 0 6 C-1.65 6 -3.3 6 -5 6 C-5 6.66 -5 7.32 -5 8 C-5.66 7.67 -6.32 7.34 -7 7 C-4.780718 4.091975 -3.070309 2.046872 0 0 Z " fill="#21784D" transform="translate(483,279)"/>
<path d="M0 0 C0.99 0 1.98 0 3 0 C3 0.66 3 1.32 3 2 C3.66 2 4.32 2 5 2 C5.33 1.34 5.66 0.68 6 0 C6.66 0 7.32 0 8 0 C8.33 0.99 8.66 1.98 9 3 C6.645613 4.429449 5.519676 5.086613 2.75 4.625 C2.1725 4.41875 1.595 4.2125 1 4 C0.67 2.68 0.34 1.36 0 0 Z " fill="#F1F9F1" transform="translate(437,308)"/>
<path d="M0 0 C0.66 0 1.32 0 2 0 C2.75 1.75 2.75 1.75 3 4 C1.1875 6.25 1.1875 6.25 -1 8 C-1.66 8 -2.32 8 -3 8 C-1.125 1.125 -1.125 1.125 0 0 Z " fill="#117445" transform="translate(420,306)"/>
<path d="M0 0 C2.189758 3.284637 2.998066 6.206963 4 10 C2.02 9.01 0.04 8.02 -2 7 C-1.34 4.69 -0.68 2.38 0 0 Z " fill="#C8EBD7" transform="translate(118,299)"/>
<path d="M0 0 C0.981205 3.052637 0.981205 4.947363 0 8 C-1.65 8 -3.3 8 -5 8 C-1.125 1.125 -1.125 1.125 0 0 Z " fill="#DFF5E9" transform="translate(415,320)"/>
<path d="M0 0 C1.945183 2.917775 3.460612 5.854295 5 9 C5.33 9.66 5.66 10.32 6 11 C5.01 11 4.02 11 3 11 C2.34 10.34 1.68 9.68 1 9 C0.34 8.67 -0.32 8.34 -1 8 C-0.67 5.36 -0.34 2.72 0 0 Z " fill="#D8EFE5" transform="translate(473,306)"/>
<path d="M0 0 C0.33 0.66 0.66 1.32 1 2 C-0.435227 5.946875 -1.678301 9.311005 -5 12 C-5 7.860218 -4.676177 7.014265 -2.5 3.75 C-2.035937 3.043594 -1.571875 2.337188 -1.09375 1.609375 C-0.732813 1.078281 -0.371875 0.547188 0 0 Z " fill="#247750" transform="translate(453,280)"/>
<path d="M0 0 C3.63 0 7.26 0 11 0 C9 4 9 4 7 5 C7 4.01 7 3.02 7 2 C4.69 1.67 2.38 1.34 0 1 C0 0.67 0 0.34 0 0 Z " fill="#B2DAC3" transform="translate(449,270)"/>
<path d="M0 0 C2.332948 -0.042417 4.667026 -0.040929 7 0 C8 1 8 1 8.097656 3.722656 C8.086055 4.824805 8.074453 5.926953 8.0625 7.0625 C8.053477 8.167227 8.044453 9.271953 8.035156 10.410156 C8.023555 11.264805 8.011953 12.119453 8 13 C7.34 12.67 6.68 12.34 6 12 C6 9.03 6 6.06 6 3 C4.02 2.34 2.04 1.68 0 1 C0 0.67 0 0.34 0 0 Z " fill="#21754B" transform="translate(500,269)"/>
<path d="M0 0 C0.99 0.33 1.98 0.66 3 1 C1.68 3.97 0.36 6.94 -1 10 C-1.66 10 -2.32 10 -3 10 C-1.125 2.25 -1.125 2.25 0 0 Z " fill="#E4F8ED" transform="translate(130,242)"/>
<path d="M0 0 C2.993243 1.097522 3.846109 1.676829 5.25 4.625 C5.4975 5.40875 5.745 6.1925 6 7 C5.34 7.66 4.68 8.32 4 9 C3.67 7.35 3.34 5.7 3 4 C2.01 4 1.02 4 0 4 C0 2.68 0 1.36 0 0 Z " fill="#127043" transform="translate(436,311)"/>
<path d="M0 0 C0.33 0.66 0.66 1.32 1 2 C1.66 2.33 2.32 2.66 3 3 C3.625 5.0625 3.625 5.0625 4 7 C4.66 7 5.32 7 6 7 C5.67 7.66 5.34 8.32 5 9 C2.69 7.02 0.38 5.04 -2 3 C-1.34 2.01 -0.68 1.02 0 0 Z " fill="#187146" transform="translate(478,311)"/>
<path d="M0 0 C0.66 0.99 1.32 1.98 2 3 C0.68 5.31 -0.64 7.62 -2 10 C-2.99 8.68 -3.98 7.36 -5 6 C-4.54625 5.566875 -4.0925 5.13375 -3.625 4.6875 C-2 3 -2 3 0 0 Z " fill="#1B764B" transform="translate(443,276)"/>
<path d="M0 0 C0.99 0 1.98 0 3 0 C2.601964 2.885758 2.209909 3.821895 -0.0625 5.75 C-0.701875 6.1625 -1.34125 6.575 -2 7 C-2 3 -2 3 0 0 Z " fill="#1C784E" transform="translate(457,274)"/>
<path d="M0 0 C0.33 0 0.66 0 1 0 C1 2.97 1 5.94 1 9 C-1.97 8.01 -4.94 7.02 -8 6 C-4 5 -4 5 -1 5 C-0.67 3.35 -0.34 1.7 0 0 Z " fill="#CBF1DC" transform="translate(506,272)"/>
<path d="M0 0 C0.33 0 0.66 0 1 0 C0.737813 4.457187 0.422887 6.515227 -2.5625 9.9375 C-3.366875 10.618125 -4.17125 11.29875 -5 12 C-3.689384 7.765702 -2.056437 3.925926 0 0 Z " fill="#D6EFE1" transform="translate(149,247)"/>
<path d="M0 0 C1.5 1.3125 1.5 1.3125 3 3 C3 3.99 3 4.98 3 6 C1.02 6 -0.96 6 -3 6 C-3 3 -3 3 -1.5 1.3125 C-1.2525 1.095937 -1.2525 1.095937 0 0 Z " fill="#0E7343" transform="translate(412,274)"/>
<path d="M0 0 C1.65 0 3.3 0 5 0 C5 0.99 5 1.98 5 3 C0.71 3 -3.58 3 -8 3 C-8 2.67 -8 2.34 -8 2 C-5.36 1.67 -2.72 1.34 0 1 C0 0.67 0 0.34 0 0 Z " fill="#3C8863" transform="translate(100,329)"/>
<path d="M0 0 C0.33 0 0.66 0 1 0 C1.75 2.75 1.75 2.75 2 6 C0.0625 8.375 0.0625 8.375 -2 10 C-2.179422 6.052724 -2.093507 3.401949 0 0 Z " fill="#E7F8EF" transform="translate(517,282)"/>
<path d="M0 0 C1.32 0 2.64 0 4 0 C4.33 0.99 4.66 1.98 5 3 C4.01 3.99 3.02 4.98 2 6 C1.34 5.34 0.68 4.68 0 4 C0 2.68 0 1.36 0 0 Z " fill="#FCFDFE" transform="translate(416,273)"/>
<path d="M0 0 C0.66 0 1.32 0 2 0 C2 3.333333 2 6.666667 2 10 C-0.462788 7.537212 -0.997713 5.29323 -2 2 C-1.34 1.34 -0.68 0.68 0 0 Z " fill="#127043" transform="translate(94,251)"/>
<path d="M0 0 C2 2 2 2 2.125 5.125 C2.08375 6.07375 2.0425 7.0225 2 8 C1.01 8 0.02 8 -1 8 C-1.930651 5.394176 -2.149174 4.358018 -1.0625 1.75 C-0.711875 1.1725 -0.36125 0.595 0 0 Z " fill="#0B6E41" transform="translate(148,325)"/>
<path d="M0 0 C0.66 0.33 1.32 0.66 2 1 C1.21625 1.763125 0.4325 2.52625 -0.375 3.3125 C-3 6 -3 6 -5 9 C-5.66 9 -6.32 9 -7 9 C-5.44499 5.183158 -2.964045 2.808043 0 0 Z " fill="#E0F7E8" transform="translate(525,273)"/>
<path d="M0 0 C0.66 0 1.32 0 2 0 C1.390091 3.557802 0.421632 6.682859 -1 10 C-1.66 9.67 -2.32 9.34 -3 9 C-2.01 6.03 -1.02 3.06 0 0 Z " fill="#E5F7ED" transform="translate(123,259)"/>
<path d="M0 0 C0.33 0 0.66 0 1 0 C1.6875 2.8125 1.6875 2.8125 2 6 C0.6875 7.875 0.6875 7.875 -1 9 C-1.66 9 -2.32 9 -3 9 C-2.01 6.03 -1.02 3.06 0 0 Z " fill="#D9EFE3" transform="translate(108,322)"/>
<path d="M0 0 C0.99 0.33 1.98 0.66 3 1 C3 2.32 3 3.64 3 5 C3.66 5 4.32 5 5 5 C5.33 5.99 5.66 6.98 6 8 C5.34 8.66 4.68 9.32 4 10 C3.328451 8.710865 2.662911 7.418598 2 6.125 C1.62875 5.405703 1.2575 4.686406 0.875 3.945312 C0 2 0 2 0 0 Z " fill="#DCF3E7" transform="translate(514,310)"/>
<path d="M0 0 C0.99 0.33 1.98 0.66 3 1 C1.95125 3.621875 1.350687 4.793714 -1.125 6.25 C-1.74375 6.4975 -2.3625 6.745 -3 7 C-1.125 1.125 -1.125 1.125 0 0 Z " fill="#1F764F" transform="translate(527,283)"/>
<path d="M0 0 C0.825 0.33 0.825 0.33 5 2 C4.67 3.98 4.34 5.96 4 8 C1.846224 5.378012 0.599278 3.355958 0 0 Z " fill="#146E44" transform="translate(101,272)"/>
<path d="M0 0 C1.108449 3.325348 0.844544 5.621826 0 9 C-0.99 8.67 -1.98 8.34 -3 8 C-1.125 2.25 -1.125 2.25 0 0 Z " fill="#D6EEE1" transform="translate(141,263)"/>
<path d="M0 0 C0.66 0 1.32 0 2 0 C0.844147 3.912117 -0.35535 6.874504 -3 10 C-3 8.02 -3 6.04 -3 4 C-2.01 3.67 -1.02 3.34 0 3 C0 2.01 0 1.02 0 0 Z " fill="#D8F3E3" transform="translate(97,304)"/>
<path d="M0 0 C0.99 0.99 1.98 1.98 3 3 C1.25 7.875 1.25 7.875 -1 9 C-0.67 6.03 -0.34 3.06 0 0 Z " fill="#1B794F" transform="translate(442,318)"/>
<path d="M0 0 C0.7425 0.45375 1.485 0.9075 2.25 1.375 C4.469306 2.686408 6.679678 3.882808 9 5 C3.375 5.25 3.375 5.25 0 3 C0 2.01 0 1.02 0 0 Z " fill="#DCF5E6" transform="translate(479,317)"/>
<path d="M0 0 C0.33 0 0.66 0 1 0 C1.125 2.875 1.125 2.875 1 6 C0.34 6.66 -0.32 7.32 -1 8 C-1.66 6.68 -2.32 5.36 -3 4 C-2.027273 2.646641 -1.026073 1.313374 0 0 Z " fill="#ECF7F2" transform="translate(100,296)"/>
<path d="M0 0 C0.6875 1.6875 0.6875 1.6875 1 4 C-0.4375 6.75 -0.4375 6.75 -2 9 C-2.99 8.34 -3.98 7.68 -5 7 C-4.34 7 -3.68 7 -3 7 C-2.690625 6.21625 -2.38125 5.4325 -2.0625 4.625 C-1 2 -1 2 0 0 Z " fill="#D9F1E5" transform="translate(439,287)"/>
<path d="M0 0 C1.5 1.375 1.5 1.375 3 3 C3 3.66 3 4.32 3 5 C1.68 5.33 0.36 5.66 -1 6 C-1.042721 4.333881 -1.040638 2.666171 -1 1 C-0.67 0.67 -0.34 0.34 0 0 Z " fill="#FCFDFB" transform="translate(428,290)"/>
</svg>
