<svg xmlns="http://www.w3.org/2000/svg" width="512" height="512" viewBox="0 0 512 512"><path fill="#020100" d="M255.1 141.8h2.4c27 0 64 1.1 84.5 21.2 4.2 5 5.1 9.3 5.2 15.8l.1 59.5.3 71.5v18.1c.2 15.8.2 15.8-5.6 22.1l-1.9 2.1A55 55 0 0 1 323 362l-2.6 1c-40 14.8-97.2 14-136.4-3-8-3.8-15.6-9.4-19-18-.3-3.1-.3-3.1-.3-6.9v-65.6l-.2-65.3v-18.1c-.1-16.9-.1-16.9 6-23.7 19.8-20 58.6-20.6 84.6-20.7"/><path d="M324 59q5.8 1.9 11.3 4.4l3.2 1.3a210 210 0 0 1 58 37.7c21.7 19 37.3 41.7 49.5 67.6l1.6 3.3a183 183 0 0 1 16.6 72.7v2.5c.6 58-17.2 109.9-57.2 152.5l-1.5 1.6A213 213 0 0 1 347 445l2.6.8 3.3 1 3.3 1c2.8 1.2 2.8 1.2 4.8 4.2.7 7 .7 7-1.7 10.4-3.9 2.7-6.5 2.7-11.2 2l-4.5-1.2-2.4-.6-17.8-4.3-2.3-.6A30 30 0 0 1 310 453c-1.8-3.7-1.6-8-.4-12l3-5.6 1-2.1 6-11 2.3-4.2 1-2c2-3.5 4-6.5 7.1-9.1 3.5-.9 5.9-1.4 9.3-.2 2.8 2 3.6 3.9 4.2 7.2-.1 5.6-3.7 10.4-6.5 15a183 183 0 0 0 47.6-31.3C415.2 371.1 434 334 443 295l.6-2.3c9.2-39.5 1.2-84.9-16.6-120.7l-1-2q-11.8-23.7-30-43l-1.6-1.8A179 179 0 0 0 317 76c-2.6-1.2-3.6-2.5-5-4.9-.6-4.4-.5-6.3 2-10 3.6-2.4 5.9-2.7 10-2m-152.8-8.3 2.3.6 16.6 4.1 2.2.6c4.8 1.2 7.8 2.8 10.7 6.9.8 5.5-.6 9-3 13.7l-1 2-5.1 9.6c-8 15.2-8 15.2-11.9 18.7-3.3.9-5.8 1-9 0-3-2.5-3.9-4-4.3-7.8.4-3.8 1.5-6.2 3.3-9.6l1.7-3.2L175 84a194 194 0 0 0-99.7 111 191 191 0 0 0-9.5 60.7v2.4c0 51.7 21 98.7 56.8 135.7q6.9 6.5 14.4 12.2l2.8 2.3c12.6 9.7 26 16.8 40.4 23.4 12.3 5.8 12.3 5.8 14.8 8.3q.8 4.5 0 9c-2 2.6-2 2.6-5 4a39 39 0 0 1-17.4-4.4l-2.4-1.1c-32.7-15.3-62-38-83.2-67.5l-1.2-1.7a203 203 0 0 1-38-103.4A212 212 0 0 1 92 127l7-7.8 5.2-6c16.6-19 37.7-32.5 59.8-44.2q-3.7-1.9-7.6-3.5C153 64 153 64 151 62q-.8-4.5 0-9c5.2-6.5 13-4 20.2-2.2"/><path fill="#000001" d="M291.2 422.1A50 50 0 0 1 305 457a51 51 0 0 1-17.3 36.3c-11.7 10-24.5 11.6-39.3 10.9a47 47 0 0 1-29.8-16.3 50 50 0 0 1-11.3-36.1c2-15 8-25.3 19.3-35 20.2-15 47-11.8 64.6 5.3M280.7 13.6c12 8 20.3 18.1 23.3 32.4 2.2 12.4.4 25.6-6.5 36.3a52 52 0 0 1-34 22.1 50 50 0 0 1-36.1-8.6 52 52 0 0 1-20.2-35A49 49 0 0 1 218 25.3c16-17.5 41.5-24 62.7-11.6"/><path fill="#fccd62" d="m181 251 12.4 4.2c20.5 7.3 42.2 8.2 63.8 8.2h2.7A177 177 0 0 0 308 258l2.8-.7q8.3-2.3 16.2-5.6c2-.8 2-.8 4-.8l.5 18.4c.5 12.9.5 12.9-1.8 16.9a21 21 0 0 1-5.7 3.7l-1.9 1a61 61 0 0 1-7.8 3q-10 3.3-20.3 5l-3 .6c-31.6 5.7-77.1 6.9-105.1-11.2l-3.5-2.5c-2.2-3-1.8-6-1.7-9.4z"/><path fill="#fcc137" d="m181 304 7.3 3c31.3 12 66.8 12.2 99.7 8l2.4-.3a150 150 0 0 0 35.6-9l5-1.7.5 26.2v2.2c0 3.7-.2 5.3-2.8 8A108 108 0 0 1 283 354l-2.5.3q-12.6 1.2-25.3 1h-2.3c-12.9 0-25.3-.8-37.9-3.3l-2.3-.5C188 346.4 188 346.4 181 338c-.5-3-.7-5-.6-8l.3-14.2q0-6 .3-11.8m148-107h2l.6 19c.6 13.3.6 13.3-2.2 17.3a27 27 0 0 1-6.4 3.7l-2.8 1.5q-10.6 3.9-21.6 6.3l-2.9.6a193 193 0 0 1-39.8 2.8l-7.7.1q-22.5.2-44.2-5.6l-2.4-.6A57 57 0 0 1 184 234l-1.6-1.1c-2.2-3-1.8-6-1.7-9.4l.3-25.5q4.5.9 8.9 2.3c42 14.7 96.8 15.6 138.1-2.3z"/><path fill="#fbcd62" d="m328.8 173.9 1.2 1.1c-.3 3-1 4-3.2 6a83 83 0 0 1-33.7 11.6l-2.2.4c-31.4 5-78.8 7.3-105.9-12-1.8-1.4-1.8-1.4-3-3 .1-2.7.7-3.7 2.6-5.6A64 64 0 0 1 205 164l2.4-.7c32.4-9.4 93.8-12.6 121.4 10.6"/><path fill="#87c5f8" d="M274 29a34 34 0 0 1 14 20 36 36 0 0 1-8.4 29.2q-8 9-19.9 10.1A36 36 0 0 1 232 78c-6.8-7.4-8.6-16-8.3-25.9A28 28 0 0 1 228 40l1.3-2.1c10.5-15.6 28.9-17.7 44.7-8.9m-2 399a34 34 0 0 1 16 21c1.5 11-1 19-7 28a34 34 0 0 1-22.3 11.4A31 31 0 0 1 240 484l-2.1-1.2A37 37 0 0 1 224 463a34 34 0 0 1 4-23l1.3-2.1A32 32 0 0 1 272 428"/><path fill="#030304" d="M272.8 35.8c3.5 1.3 4.7 1.9 6.2 5.2.6 3 .6 5-1 7.7-4 5.6-8.7 10.4-13.3 15.4q-3.4 3.7-6.4 7.6a14 14 0 0 1-6.8 4.7c-6.2-.7-8.9-4.5-12.7-9-6.5-8.4-6.5-8.4-5.8-14.4 2-3 2-3 5-5 4.6-.2 6.4.4 9.8 3.6L250 54h2l4.1-5c10.4-13 10.4-13 16.7-13.3M276 437c2.4 2.1 2.9 3.6 3.6 6.7-1.6 8.4-10.3 15.3-16 21.5q-3.1 3.3-5.9 7c-2.7 2.8-2.7 2.8-6.2 4-4.6-.3-6.6-2-9.5-5.2-8.8-10.3-8.8-10.3-9.4-14.8.4-3.2.4-3.2 2.5-6.1 2.9-2.1 2.9-2.1 6.3-2.3 4.5 1.5 7.2 3.9 10.6 7.2l.8-1.8c1.2-2.2 2.5-3.8 4.2-5.6l1.7-1.9 1.8-1.9 1.8-2c4.7-5 6.5-6.4 13.7-4.8"/><path fill="#e0a926" d="m331 304 .5 26.2v2.2c0 3.8-.2 5.3-3 8-2.5 1.6-2.5 1.6-3.5 1.6v-34l-2-1c5.8-3 5.8-3 8-3"/><path fill="#dca524" d="m331 197 .3 26.3v2.2c0 5 0 5-1.7 7.5-1.6 1-1.6 1-3.6 1l-.3-27.1v-2.3c0-2.2 0-2.2.3-5.6 3-2 3-2 5-2"/><path fill="#e7b133" d="m331 251 .5 25.4v2.1c0 2 0 2-.5 5.5l-5 4v-34l-2-1c4.8-2 4.8-2 7-2"/><path fill="#f7be3a" d="M324 171c4.8 2.5 4.8 2.5 5.8 5.2l.2 1.8-5 4z"/></svg>